<svg width="222" height="45" viewBox="0 0 222 45" fill="none" xmlns="http://www.w3.org/2000/svg">
<path d="M68.2685 19.1527C68.2685 19.9861 68.0719 20.7723 67.6788 21.5114C67.2857 22.2504 66.6567 22.8558 65.7918 23.3276C64.927 23.7836 63.8184 24.0116 62.4661 24.0116H59.4941V30.6631H56.8052V14.2701H62.4661C63.724 14.2701 64.7855 14.4903 65.6503 14.9306C66.5309 15.3551 67.1835 15.937 67.608 16.676C68.0483 17.4151 68.2685 18.2406 68.2685 19.1527ZM62.4661 21.818C63.4882 21.818 64.2508 21.59 64.754 21.134C65.2572 20.6622 65.5088 20.0018 65.5088 19.1527C65.5088 17.36 64.4946 16.4637 62.4661 16.4637H59.4941V21.818H62.4661Z" fill="white"/>
<path d="M79.348 30.6631L75.574 24.1059H73.5219V30.6631H70.833V14.2701H76.4939C77.7519 14.2701 78.8133 14.4903 79.6782 14.9306C80.5588 15.3709 81.2113 15.9606 81.6359 16.6996C82.0762 17.4387 82.2963 18.2642 82.2963 19.1763C82.2963 20.2455 81.9818 21.2205 81.3529 22.101C80.7396 22.9659 79.7882 23.5556 78.4988 23.8701L82.5558 30.6631H79.348ZM73.5219 21.9595H76.4939C77.5003 21.9595 78.2551 21.7079 78.7583 21.2047C79.2772 20.7015 79.5367 20.0254 79.5367 19.1763C79.5367 18.3271 79.2851 17.6667 78.7819 17.1949C78.2787 16.7075 77.516 16.4637 76.4939 16.4637H73.5219V21.9595Z" fill="white"/>
<path d="M93.2133 30.8283C91.688 30.8283 90.2806 30.4745 88.9912 29.7668C87.7175 29.0435 86.7032 28.045 85.9485 26.7713C85.2094 25.4819 84.8399 24.0352 84.8399 22.4313C84.8399 20.8273 85.2094 19.3885 85.9485 18.1148C86.7032 16.8411 87.7175 15.8505 88.9912 15.1429C90.2806 14.4195 91.688 14.0579 93.2133 14.0579C94.7543 14.0579 96.1617 14.4195 97.4354 15.1429C98.7248 15.8505 99.739 16.8411 100.478 18.1148C101.217 19.3885 101.587 20.8273 101.587 22.4313C101.587 24.0352 101.217 25.4819 100.478 26.7713C99.739 28.045 98.7248 29.0435 97.4354 29.7668C96.1617 30.4745 94.7543 30.8283 93.2133 30.8283ZM93.2133 28.4931C94.2983 28.4931 95.2654 28.2494 96.1145 27.7619C96.9636 27.2588 97.6241 26.5511 98.0958 25.6391C98.5833 24.7113 98.827 23.6421 98.827 22.4313C98.827 21.2205 98.5833 20.159 98.0958 19.247C97.6241 18.335 96.9636 17.6352 96.1145 17.1478C95.2654 16.6603 94.2983 16.4166 93.2133 16.4166C92.1283 16.4166 91.1612 16.6603 90.3121 17.1478C89.4629 17.6352 88.7946 18.335 88.3072 19.247C87.8354 20.159 87.5996 21.2205 87.5996 22.4313C87.5996 23.6421 87.8354 24.7113 88.3072 25.6391C88.7946 26.5511 89.4629 27.2588 90.3121 27.7619C91.1612 28.2494 92.1283 28.4931 93.2133 28.4931Z" fill="white"/>
<path d="M115.696 19.1527C115.696 19.9861 115.499 20.7723 115.106 21.5114C114.713 22.2504 114.084 22.8558 113.219 23.3276C112.354 23.7836 111.246 24.0116 109.894 24.0116H106.922V30.6631H104.233V14.2701H109.894C111.152 14.2701 112.213 14.4903 113.078 14.9306C113.958 15.3551 114.611 15.937 115.036 16.676C115.476 17.4151 115.696 18.2406 115.696 19.1527ZM109.894 21.818C110.916 21.818 111.678 21.59 112.182 21.134C112.685 20.6622 112.936 20.0018 112.936 19.1527C112.936 17.36 111.922 16.4637 109.894 16.4637H106.922V21.818H109.894Z" fill="white"/>
<path d="M125.738 30.8283C124.212 30.8283 122.805 30.4745 121.516 29.7668C120.242 29.0435 119.228 28.045 118.473 26.7713C117.734 25.4819 117.364 24.0352 117.364 22.4313C117.364 20.8273 117.734 19.3885 118.473 18.1148C119.228 16.8411 120.242 15.8505 121.516 15.1429C122.805 14.4195 124.212 14.0579 125.738 14.0579C127.279 14.0579 128.686 14.4195 129.96 15.1429C131.249 15.8505 132.263 16.8411 133.002 18.1148C133.741 19.3885 134.111 20.8273 134.111 22.4313C134.111 24.0352 133.741 25.4819 133.002 26.7713C132.263 28.045 131.249 29.0435 129.96 29.7668C128.686 30.4745 127.279 30.8283 125.738 30.8283ZM125.738 28.4931C126.823 28.4931 127.79 28.2494 128.639 27.7619C129.488 27.2588 130.148 26.5511 130.62 25.6391C131.108 24.7113 131.351 23.6421 131.351 22.4313C131.351 21.2205 131.108 20.159 130.62 19.247C130.148 18.335 129.488 17.6352 128.639 17.1478C127.79 16.6603 126.823 16.4166 125.738 16.4166C124.653 16.4166 123.686 16.6603 122.836 17.1478C121.987 17.6352 121.319 18.335 120.832 19.247C120.36 20.159 120.124 21.2205 120.124 22.4313C120.124 23.6421 120.36 24.7113 120.832 25.6391C121.319 26.5511 121.987 27.2588 122.836 27.7619C123.686 28.2494 124.653 28.4931 125.738 28.4931Z" fill="white"/>
<path d="M142.158 30.8283C141.058 30.8283 140.067 30.6396 139.186 30.2622C138.306 29.8691 137.614 29.3187 137.111 28.6111C136.608 27.9035 136.356 27.0779 136.356 26.1344H139.234C139.297 26.842 139.572 27.4239 140.059 27.8799C140.562 28.3359 141.262 28.5639 142.158 28.5639C143.086 28.5639 143.81 28.3438 144.328 27.9035C144.847 27.4474 145.107 26.8656 145.107 26.158C145.107 25.6077 144.942 25.1595 144.611 24.8136C144.297 24.4676 143.896 24.2003 143.409 24.0116C142.937 23.8229 142.276 23.6185 141.427 23.3983C140.358 23.1153 139.485 22.8322 138.809 22.5492C138.149 22.2504 137.583 21.7944 137.111 21.1812C136.639 20.5679 136.403 19.7502 136.403 18.7281C136.403 17.7846 136.639 16.9591 137.111 16.2515C137.583 15.5438 138.243 15.0013 139.092 14.624C139.941 14.2466 140.924 14.0579 142.041 14.0579C143.629 14.0579 144.926 14.4588 145.932 15.2608C146.954 16.047 147.521 17.132 147.631 18.5158H144.659C144.612 17.9183 144.328 17.4072 143.81 16.9827C143.291 16.5581 142.607 16.3458 141.757 16.3458C140.987 16.3458 140.358 16.5424 139.87 16.9355C139.383 17.3286 139.139 17.8947 139.139 18.6338C139.139 19.1369 139.289 19.5536 139.587 19.8839C139.902 20.1984 140.295 20.45 140.767 20.6387C141.239 20.8273 141.883 21.0318 142.701 21.2519C143.786 21.5507 144.667 21.8495 145.343 22.1482C146.035 22.447 146.616 22.9109 147.088 23.5399C147.576 24.1531 147.819 24.9787 147.819 26.0165C147.819 26.8499 147.591 27.6361 147.135 28.3752C146.695 29.1143 146.042 29.7118 145.178 30.1678C144.328 30.6081 143.322 30.8283 142.158 30.8283Z" fill="white"/>
<path d="M160.875 27.3138H154.011L152.832 30.6631H150.025L155.898 14.2466H159.012L164.885 30.6631H162.055L160.875 27.3138ZM160.12 25.1202L157.455 17.5016L154.766 25.1202H160.12Z" fill="white"/>
<path d="M170.128 28.4931H175.671V30.6631H167.439V14.2701H170.128V28.4931Z" fill="white"/>
<path d="M189.783 18.9876C189.359 18.1699 188.769 17.5566 188.014 17.1478C187.26 16.7232 186.387 16.5109 185.396 16.5109C184.311 16.5109 183.344 16.7546 182.495 17.2421C181.646 17.7296 180.978 18.4215 180.49 19.3178C180.018 20.2141 179.783 21.2519 179.783 22.4313C179.783 23.6106 180.018 24.6563 180.49 25.5683C180.978 26.4647 181.646 27.1565 182.495 27.644C183.344 28.1315 184.311 28.3752 185.396 28.3752C186.859 28.3752 188.046 27.9664 188.958 27.1487C189.87 26.331 190.428 25.2224 190.633 23.8229H184.476V21.6765H193.51V23.7757C193.337 25.0494 192.881 26.2209 192.142 27.2902C191.419 28.3595 190.468 29.2165 189.288 29.8612C188.125 30.4902 186.827 30.8047 185.396 30.8047C183.855 30.8047 182.448 30.4509 181.174 29.7433C179.901 29.0199 178.886 28.0214 178.131 26.7477C177.392 25.474 177.023 24.0352 177.023 22.4313C177.023 20.8273 177.392 19.3885 178.131 18.1148C178.886 16.8411 179.901 15.8505 181.174 15.1429C182.464 14.4195 183.871 14.0579 185.396 14.0579C187.142 14.0579 188.691 14.4903 190.043 15.3551C191.411 16.2043 192.402 17.4151 193.015 18.9876H189.783Z" fill="white"/>
<path d="M198.851 16.4402V21.2519H204.512V23.4455H198.851V28.4696H205.22V30.6631H196.162V14.2466H205.22V16.4402H198.851Z" fill="white"/>
<path d="M222 30.6631H219.311L211.221 18.4215V30.6631H208.532V14.2466H211.221L219.311 26.4647V14.2466H222V30.6631Z" fill="white"/>
<g clip-path="url(#clip0_462_527)">
<path d="M22.4092 42.5599C10.9339 42.5599 1.66635 32.9174 2.28664 21.3096C2.82515 11.1708 10.9734 2.93518 21.1094 2.29798C32.4239 1.58466 41.917 10.2686 42.5289 21.2814H28.7558C28.1834 18.0503 25.1976 15.6397 21.7297 15.9949C18.6311 16.3135 16.1697 18.8821 15.9723 21.9919C15.7355 25.7362 18.7128 28.8573 22.4063 28.8573C25.5782 28.8573 28.2173 26.5567 28.753 23.537H43.6848C44.2995 23.5878 44.8098 23.1254 44.8126 22.5107C44.8718 9.81467 34.3158 -0.476374 21.5267 0.0170323C9.78078 0.470966 0.290456 10.1051 0.00568955 21.8538C-0.298813 34.4624 9.86818 44.8155 22.4063 44.8155C32.6382 44.8155 41.5618 37.905 44.1078 28.0087C44.1078 27.9974 44.1078 27.989 44.1134 27.9777C44.1219 27.9467 44.1247 27.9128 44.1275 27.879C44.1331 27.8339 44.1388 27.7916 44.1416 27.7465C44.1416 27.738 44.1416 27.7324 44.1416 27.7239C44.1416 27.7014 44.136 27.6816 44.136 27.6619C44.136 27.614 44.1303 27.5688 44.1219 27.5209C44.1162 27.4899 44.1078 27.4617 44.0993 27.4335C44.088 27.394 44.0768 27.3518 44.0627 27.3123C44.0514 27.2813 44.0345 27.2531 44.0204 27.2221C44.0034 27.1854 43.9865 27.1516 43.964 27.1177C43.9471 27.0895 43.9273 27.0642 43.9076 27.0388C43.8822 27.0078 43.8597 26.9768 43.8315 26.9457C43.8089 26.9232 43.7835 26.9006 43.761 26.8781C43.7328 26.8527 43.7018 26.8273 43.6707 26.802C43.6426 26.7822 43.6115 26.7653 43.5805 26.7456C43.5495 26.7286 43.5185 26.7089 43.4847 26.692C43.448 26.6751 43.4085 26.6638 43.3691 26.6497C43.3465 26.6412 43.324 26.63 43.2986 26.6243C43.2901 26.6243 43.2817 26.6243 43.2732 26.6215C43.2366 26.6131 43.1971 26.6074 43.1576 26.6046C43.1181 26.599 43.0787 26.5933 43.042 26.5933C43.0336 26.5933 43.0251 26.5933 43.0166 26.5933H37.4595C37.4595 26.5933 37.4397 26.5933 37.4285 26.5961C37.3862 26.5961 37.3439 26.6018 37.3016 26.6102C37.2677 26.6159 37.2367 26.6187 37.2029 26.6271C37.1662 26.6356 37.1324 26.6469 37.0986 26.661C37.0647 26.6723 37.0281 26.6835 36.9943 26.6976C36.9632 26.7117 36.935 26.7286 36.904 26.7456C36.8702 26.7653 36.8364 26.7822 36.8054 26.8048C36.7772 26.8245 36.7518 26.8471 36.7264 26.8696C36.6982 26.895 36.6672 26.9176 36.6418 26.9457C36.6193 26.9683 36.5995 26.9965 36.5798 27.0219C36.5544 27.0529 36.529 27.0839 36.5065 27.1206C36.4896 27.1459 36.4783 27.1713 36.4642 27.1967C36.4416 27.2362 36.4219 27.2784 36.405 27.3207C36.4022 27.3292 36.3965 27.3377 36.3937 27.3461C34.3045 33.2613 28.6825 37.234 22.4035 37.234C14.2243 37.234 7.57032 30.58 7.57032 22.4008C7.57032 14.2215 14.2243 7.56756 22.4035 7.56756C28.1327 7.56756 33.312 10.8776 35.7621 15.9498H32.2435C30.0781 12.6539 26.3677 10.6295 22.4035 10.6295C15.7017 10.6295 10.2911 16.26 10.652 23.038C10.9565 28.7587 15.431 33.4954 21.1291 34.0987C26.0096 34.6175 30.5884 32.1279 32.8271 27.8649C33.0583 27.4251 33.0075 26.8696 32.6551 26.5228C32.0799 25.9561 31.1862 26.1366 30.845 26.7907C28.9954 30.3404 25.1412 32.376 21.0727 31.8206C16.5926 31.206 13.1359 27.4138 12.9047 22.897C12.6228 17.4272 16.993 12.8851 22.4035 12.8851C25.7869 12.8851 28.9447 14.7064 30.642 17.6415C30.6476 17.6528 30.6561 17.6612 30.6646 17.6725C30.6871 17.7064 30.7097 17.7402 30.735 17.7712C30.7576 17.7994 30.7773 17.8248 30.7999 17.8502C30.8253 17.8783 30.8535 17.9009 30.8817 17.9263C30.9099 17.9488 30.9352 17.9742 30.9634 17.9939C30.9944 18.0165 31.0254 18.0334 31.0593 18.0532C31.0903 18.0701 31.1185 18.087 31.1495 18.1011C31.1833 18.118 31.22 18.1293 31.2595 18.1406C31.2905 18.1518 31.3243 18.1631 31.3581 18.1716C31.3948 18.18 31.4315 18.1857 31.4681 18.1885C31.5048 18.1941 31.5414 18.1998 31.5809 18.1998C31.595 18.1998 31.6063 18.2026 31.6204 18.2026H37.4566C37.4792 18.2026 37.5018 18.1969 37.5271 18.1969C37.5666 18.1969 37.6089 18.1913 37.6484 18.1857C37.6878 18.18 37.7245 18.1688 37.764 18.1575C37.7865 18.1518 37.8119 18.149 37.8345 18.1406C37.8457 18.1377 37.8542 18.1321 37.8627 18.1265C37.9021 18.1124 37.9388 18.0926 37.9754 18.0729C38.0064 18.056 38.0375 18.0419 38.0657 18.025C38.0967 18.0052 38.1249 17.9827 38.1531 17.9601C38.1813 17.9376 38.2123 17.915 38.2376 17.8896C38.263 17.8642 38.2856 17.8389 38.3081 17.8135C38.3335 17.7853 38.3561 17.7571 38.3786 17.7289C38.3983 17.7007 38.4153 17.6669 38.435 17.6359C38.4519 17.6049 38.4717 17.5738 38.4858 17.5428C38.4999 17.509 38.5111 17.4752 38.5224 17.4413C38.5337 17.4047 38.5478 17.3708 38.5562 17.3342C38.5647 17.3032 38.5675 17.2693 38.5732 17.2355C38.5788 17.1932 38.5844 17.1537 38.5844 17.1115C38.5844 17.1002 38.5873 17.0917 38.5873 17.0804C38.5873 17.0579 38.5816 17.0353 38.5816 17.01C38.5816 16.9705 38.576 16.9282 38.5703 16.8887C38.5647 16.8492 38.5534 16.8098 38.5421 16.7731C38.5365 16.7506 38.5337 16.728 38.5252 16.7026C36.1174 9.88798 29.6411 5.31199 22.4092 5.31199C12.9865 5.31199 5.32038 12.9781 5.32038 22.4008C5.32038 31.8234 12.9865 39.4895 22.4092 39.4895C29.3704 39.4895 35.6296 35.2463 38.2376 28.8489H41.5054C38.7677 36.9859 31.1157 42.5543 22.4092 42.5543V42.5599ZM23.6695 21.2814C23.286 20.8557 22.6939 20.6217 22.0511 20.7542C21.4083 20.8867 20.8867 21.4055 20.7541 22.0483C20.5258 23.1423 21.3547 24.1037 22.4092 24.1037C22.911 24.1037 23.3593 23.8838 23.6695 23.5398H26.441C25.9279 25.3725 24.2023 26.7033 22.1892 26.599C20.0662 26.489 18.3238 24.7409 18.2223 22.6179C18.1067 20.2129 20.0295 18.2223 22.4092 18.2223C24.3292 18.2223 25.9476 19.5221 26.4438 21.2871H23.6723L23.6695 21.2814Z" fill="white"/>
</g>
<defs>
<clipPath id="clip0_462_527">
<rect width="44.8154" height="44.8154" fill="white"/>
</clipPath>
</defs>
</svg>
