<svg width="192" height="72" viewBox="0 0 192 72" fill="none" xmlns="http://www.w3.org/2000/svg">
<path d="M79.0278 0.60791H72.3115V47.3478H79.0278V0.60791Z" fill="#0033A0"/>
<path d="M113.294 41.7275C103.489 41.7275 95.1301 34.7374 95.1301 24.1116C95.1301 16.3 100.409 6.29031 113.499 6.29031C125.699 6.29031 131.594 16.0947 131.594 23.8301C131.594 27.8766 129.883 32.9423 126.932 36.1673C123.714 39.6738 118.299 41.7275 113.294 41.7275ZM138.447 23.9138C138.447 11.3712 128.787 0 113.225 0C97.2598 0 88.2085 11.7211 88.2085 24.1192C88.2085 37.1409 98.2106 47.9645 112.875 47.9645C128.164 47.9645 138.447 37.3463 138.447 23.9138Z" fill="#0033A0"/>
<path d="M184.777 0.60791L169.291 19.7983L153.729 0.60791H147.431V47.3478H154.147V10.9599L168.675 29.0474H169.907L184.298 10.9599V47.3478H191.014V0.60791H184.777Z" fill="#0033A0"/>
<path d="M11.8809 65.0552C11.8809 66.584 11.7439 67.4055 11.4397 67.9531C11.0214 68.7061 9.90325 70.0068 7.33998 70.0068C5.49928 70.0068 4.44963 69.3907 3.77268 68.7061C2.95882 67.9075 2.76867 67.1088 2.76867 65.0552V56.2168H0.486816V65.0552C0.486816 66.1048 0.486816 67.9075 1.36913 69.2842C2.62415 71.2466 5.09616 71.9996 7.33237 71.9996C9.15024 71.9996 10.9225 71.5432 12.3448 70.311C14.1399 68.7366 14.1399 66.5612 14.1399 65.0552V56.2168H11.8809V65.0552Z" fill="#0033A0"/>
<path d="M32.7368 68.303L22.0121 56.2168H20.1714V71.7942H22.3163V59.8069L32.9421 71.7942H34.8969V56.2168H32.7368V68.303Z" fill="#0033A0"/>
<path d="M56.8258 62.6136L51.5395 56.2168H49.3945V71.7942H51.6764V59.67L56.6204 65.7017H57.0387L61.9295 59.67V71.7942H64.2114V56.2168H62.0968L56.8258 62.6136Z" fill="#0033A0"/>
<path d="M72.8365 56.2168H70.5547V71.7942H72.8365V56.2168Z" fill="#0033A0"/>
<path d="M86.9611 66.1127H90.0112V69.3529C88.4976 69.8321 87.7065 70.0375 86.5428 70.0375C82.7017 70.0375 80.1612 67.459 80.1612 64.0058C80.1612 60.3244 83.1656 57.9969 86.3374 57.9969C87.2197 57.9969 89.3647 58.1338 91.9736 59.617V57.3352C90.2698 56.6278 88.6193 56.0117 86.383 56.0117C80.9294 56.0117 77.7881 60.0354 77.7881 64.1427C77.7881 67.6796 80.3285 71.9999 86.4819 71.9999C89.1365 71.9999 91.0989 71.2469 92.3083 70.722V64.1427H86.9687V66.1127H86.9611Z" fill="#0033A0"/>
<path d="M103.733 62.7969C103.102 63.0251 101.87 63.0251 101.52 63.0251H100.637V58.1115H101.337C102.714 58.1115 103.459 58.2028 104.037 58.4766C104.783 58.8189 105.247 59.6632 105.247 60.5531C105.254 61.405 104.806 62.3862 103.733 62.7969ZM104.927 64.3942C106.654 63.7325 107.582 62.3634 107.582 60.5531C107.582 58.9786 106.791 57.427 105.087 56.712C104.083 56.2784 103.109 56.21 102.364 56.21H98.3784V71.7874H100.637V65.0027H101.246C102.341 65.0027 103.109 65.0027 104.669 66.9651C105.178 67.6268 107.392 71.0344 107.932 71.7874H110.632C109.537 70.2814 109.141 69.7565 108.464 68.6841C107.255 66.7749 106.373 65.3298 104.927 64.3942Z" fill="#0033A0"/>
<path d="M118.321 65.1925L120.694 59.5488L123.258 65.1925H118.321ZM119.934 56.126L113.104 71.7947H115.431L117.431 67.2006H124.186L126.308 71.7947H128.635L121.531 56.126H119.934Z" fill="#0033A0"/>
<path d="M129.495 58.1792H134.949V71.7942H137.231V58.1792H142.775V56.2168H129.495V58.1792Z" fill="#0033A0"/>
<path d="M150.07 56.2168H147.788V71.7942H150.07V56.2168Z" fill="#0033A0"/>
<path d="M167.967 68.0751C166.872 69.2388 165.031 69.9234 163.327 69.9234C159.996 69.9234 157.151 67.5959 157.151 64.0514C157.151 61.4501 158.946 58.111 163.396 58.111C167.541 58.111 169.549 61.3817 169.549 63.9602C169.549 65.3141 168.963 67.0026 167.967 68.0751ZM163.304 56.0117C157.874 56.0117 154.801 59.9213 154.801 64.0514C154.801 68.3946 158.201 71.9999 163.19 71.9999C168.385 71.9999 171.884 68.4554 171.884 63.983C171.877 59.8072 168.591 56.0117 163.304 56.0117Z" fill="#0033A0"/>
<path d="M188.816 68.303L178.099 56.2168H176.258V71.7942H178.403V59.8069L189.029 71.7942H190.983V56.2168H188.816V68.303Z" fill="#0033A0"/>
<path d="M24.5221 19.5705C25.0469 19.5705 25.4728 19.1445 25.4728 18.6197C25.4728 18.0949 25.0469 17.6689 24.5221 17.6689C23.9972 17.6689 23.5713 18.0949 23.5713 18.6197C23.5713 19.1445 23.9972 19.5705 24.5221 19.5705Z" fill="#0033A0"/>
<path d="M20.9171 25.2827C20.9856 25.3283 21.0616 25.3435 21.1301 25.3435C21.2898 25.3435 21.4419 25.2522 21.5028 25.0925L23.199 21.0993L23.3283 24.986L22.6894 29.9148C22.6665 30.105 22.7654 30.3027 22.9556 30.3636C23.0012 30.3788 23.0468 30.3864 23.1001 30.3864C23.3055 30.3864 23.4804 30.2343 23.5032 30.0289L24.1117 25.3359H24.9332L25.5417 30.0289C25.5645 30.2343 25.747 30.3864 25.9448 30.3864C25.9904 30.3864 26.0361 30.3788 26.0893 30.3636C26.2719 30.2951 26.3707 30.105 26.3555 29.9148L25.7166 24.986L25.8383 21.0993L27.5345 25.0925C27.5421 25.1153 27.5573 25.1381 27.5649 25.1534C27.5649 25.161 27.5725 25.161 27.5801 25.1686C27.5877 25.1838 27.6029 25.199 27.6106 25.2142C27.6182 25.2218 27.6182 25.2218 27.6258 25.2294C27.641 25.2446 27.6562 25.2598 27.6714 25.2675L27.679 25.2751C27.7018 25.2903 27.717 25.2979 27.7399 25.3055C27.7475 25.3055 27.7551 25.3055 27.7551 25.3131C27.7703 25.3207 27.7855 25.3283 27.8083 25.3283C27.8159 25.3283 27.8235 25.3283 27.8311 25.3359C27.8539 25.3435 27.8768 25.3435 27.9072 25.3435H28.2495L27.7018 28.1198C27.6638 28.3175 27.717 28.5229 27.8387 28.675C27.9148 28.7739 28.0213 28.8424 28.1354 28.8804V30.0517C28.1354 30.2419 28.2875 30.394 28.4777 30.394C28.6678 30.394 28.8199 30.2419 28.8199 30.0517V28.9184C28.8351 28.9184 28.8428 28.9184 28.8504 28.9184H29.0709H29.2915C29.3067 28.9184 29.3143 28.9184 29.3219 28.9184V30.0517C29.3219 30.2419 29.4741 30.394 29.6642 30.394C29.8544 30.394 30.0065 30.2419 30.0065 30.0517V28.8728C30.1206 28.8347 30.2271 28.7587 30.3031 28.6674C30.4324 28.5077 30.4857 28.3099 30.44 28.1122L29.8924 25.3435H30.2347C30.2575 25.3435 30.2803 25.3435 30.3107 25.3359C30.3183 25.3359 30.326 25.3359 30.3336 25.3283C30.3488 25.3283 30.3716 25.3207 30.3868 25.3131C30.3944 25.3131 30.402 25.3055 30.402 25.3055C30.4248 25.2979 30.4477 25.2827 30.4629 25.2751L30.4705 25.2675C30.4857 25.2598 30.5009 25.2446 30.5161 25.2294C30.5237 25.2218 30.5237 25.2218 30.5313 25.2142C30.5465 25.199 30.5541 25.1838 30.5617 25.1686C30.5617 25.161 30.5694 25.161 30.577 25.1534C30.5922 25.1305 30.5998 25.1153 30.6074 25.0925L32.3644 20.9548L32.7067 22.6357C32.7599 22.9095 32.7523 23.1986 32.6839 23.48L31.079 30.394H33.2924H33.8552H36.0686L34.4637 23.4724C34.3953 23.2062 34.3876 22.9171 34.4409 22.6433L34.7908 20.9471L36.1447 24.2786C36.2055 24.4384 36.3653 24.5373 36.525 24.5373C36.5782 24.5373 36.6315 24.5297 36.6771 24.5068C36.8825 24.4232 36.989 24.1798 36.9053 23.9744L35.3841 20.2474C35.3232 20.0953 35.1711 19.9888 35.0037 19.9888H34.9809H34.3192H33.8476H33.2848H32.8284H32.1514H32.1438C31.9765 19.9888 31.832 20.0877 31.7711 20.2398L29.9456 24.5373H28.143L26.3175 20.2398C26.2567 20.0877 26.1045 19.9888 25.9372 19.9888H24.4768H23.0164C22.8491 19.9888 22.7046 20.0877 22.6437 20.2398L20.7194 24.7654C20.6813 24.948 20.7422 25.1762 20.9171 25.2827Z" fill="#0033A0"/>
<path d="M33.5968 19.5705C34.1216 19.5705 34.5475 19.1445 34.5475 18.6197C34.5475 18.0949 34.1216 17.6689 33.5968 17.6689C33.0719 17.6689 32.646 18.0949 32.646 18.6197C32.646 19.1445 33.0719 19.5705 33.5968 19.5705Z" fill="#0033A0"/>
<path d="M29.0783 24.3167C29.4738 24.3167 29.7932 23.9972 29.7932 23.6017C29.7932 23.2062 29.4738 22.8867 29.0783 22.8867C28.6827 22.8867 28.3633 23.2062 28.3633 23.6017C28.3633 23.9972 28.6827 24.3167 29.0783 24.3167Z" fill="#0033A0"/>
<path d="M33.4063 37.0496C31.6873 37.1409 30.0596 37.5288 28.5536 38.1525C26.3402 37.1789 24.2561 35.5055 22.6816 33.4062H33.4063V37.0496ZM33.4063 44.0853C30.4551 43.9332 27.6712 43.1117 25.1916 41.7502C27.3442 39.7498 30.2193 38.4643 33.4063 38.2666V44.0853ZM16.9694 33.4062H21.1147C22.674 35.7413 24.7733 37.6657 27.0247 38.8979C25.937 39.5064 24.9482 40.2442 24.0735 41.0961C21.1299 39.2174 18.6808 36.5628 16.9694 33.4062ZM14.4213 25.0166H18.4678C18.4678 25.0547 18.4678 25.0927 18.4678 25.1155C18.4678 27.5267 19.1371 29.8618 20.2476 31.9459H16.2544C15.2884 29.8161 14.6571 27.481 14.4213 25.0166ZM8.96007 23.5639C8.95246 23.3813 8.94486 23.0999 8.94486 22.9402C8.94486 20.5062 9.68265 18.1559 10.8996 16.1098H35.9848C37.1942 18.1559 37.9396 20.5062 37.9396 22.9402C37.9396 22.9706 37.9396 23.001 37.9396 23.039H37.9244L37.9015 24.4918H48.7251C48.7251 24.6744 48.7327 24.9558 48.7327 25.1155C48.7327 27.5495 47.9949 29.8998 46.7779 31.9459H21.708C20.4986 29.8998 19.7608 27.5495 19.7608 25.1155C19.7608 25.0851 19.7608 25.0547 19.7608 25.0166L19.7836 23.5639H8.96007ZM3.31629 23.5639C3.51405 20.9169 4.16818 18.3993 5.18741 16.1098H9.44686C8.33636 18.1939 7.66702 20.529 7.66702 22.9402C7.66702 23.0542 7.66702 23.3585 7.67462 23.5639H3.31629ZM13.1815 6.87592C14.079 7.76584 15.1059 8.54167 16.2316 9.17299C13.9801 10.4052 11.8808 12.3295 10.3216 14.6646H5.90999C7.65181 11.4396 10.1618 8.75464 13.1815 6.87592ZM22.8185 11.0289V14.6646H11.8808C13.4629 12.5653 15.547 10.892 17.7604 9.91839C19.3197 10.5649 21.0235 10.9528 22.8185 11.0289ZM22.8185 3.97036V9.8119C19.5022 9.65978 16.5054 8.32109 14.3072 6.2294C16.8705 4.85268 19.7608 4.04642 22.8185 3.97036ZM24.2789 11.0213C25.9979 10.93 27.6256 10.5421 29.1316 9.91839C31.345 10.892 33.4291 12.5653 35.0112 14.6646H24.2789V11.0213ZM24.2789 3.98557C27.2301 4.1377 30.0063 4.95917 32.4936 6.32067C30.3486 8.31349 27.4735 9.60654 24.2789 9.79669V3.98557ZM40.7158 14.6646H36.5629C35.0112 12.3295 32.9119 10.4052 30.6529 9.17299C31.7329 8.56449 32.7293 7.82669 33.6041 6.9748C36.5553 8.85352 39.0044 11.5005 40.7158 14.6646ZM43.2639 23.0466H39.2174C39.2174 23.0086 39.2174 22.9706 39.2174 22.9478C39.2174 20.5366 38.5481 18.2015 37.4376 16.1174H41.4308C42.3968 18.2547 43.0281 20.5898 43.2639 23.0466ZM54.3689 24.4994C54.1711 27.1464 53.517 29.664 52.4978 31.9535H48.2383C49.3488 29.8694 50.0182 27.5343 50.0182 25.1231C50.0182 25.0014 50.0182 24.7048 50.0106 24.4994H54.3689ZM44.5037 41.1874C43.6062 40.2974 42.5793 39.5216 41.4536 38.8903C43.7051 37.6581 45.8044 35.7337 47.3636 33.3986H51.7752C50.0334 36.6236 47.5233 39.3086 44.5037 41.1874ZM34.8667 37.0344V33.3986H45.8044C44.2223 35.4979 42.1382 37.1713 39.9248 38.1449C38.3655 37.4984 36.6617 37.1104 34.8667 37.0344ZM34.8667 44.1005V38.259C38.183 38.4111 41.1722 39.7498 43.378 41.8415C40.8147 43.2182 37.9244 44.0168 34.8667 44.1005ZM57.6776 22.6131C57.6776 15.1895 54.2776 6.88352 48.7403 0.699707H43.8039C45.097 1.88627 46.892 3.96275 46.892 3.96275C51.6535 9.28707 54.4297 16.4293 54.4297 22.8108C54.4297 22.8869 54.4297 22.9706 54.4297 23.0466H46.5269C45.3252 10.5725 35.3915 0.699707 23.3205 0.699707C10.4433 0.699707 0 11.7819 0 25.4578C0 32.8814 3.40757 41.1873 8.93725 47.3712H13.8737C12.5882 46.1846 10.7855 44.1081 10.7855 44.1081C6.02409 38.7838 3.24783 31.6416 3.24783 25.26C3.24783 25.184 3.24783 25.1003 3.24783 25.0242H11.1583C12.36 37.4984 22.3013 47.3712 34.3647 47.3712C47.2419 47.3712 57.6776 36.289 57.6776 22.6131Z" fill="#0033A0"/>
</svg>
