<svg width="24" height="24" viewBox="0 0 24 24" fill="none" xmlns="http://www.w3.org/2000/svg">
<path d="M6.99977 20.0003V8.97526C6.99977 8.42526 7.19977 7.95859 7.59977 7.57526C7.99977 7.19192 8.47477 7.00026 9.02477 7.00026H19.9998C20.5498 7.00026 21.0206 7.19609 21.4123 7.58776C21.8039 7.97942 21.9998 8.45026 21.9998 9.00026V16.1753C21.9998 16.4419 21.9498 16.6961 21.8498 16.9378C21.7498 17.1794 21.6081 17.3919 21.4248 17.5753L17.5748 21.4253C17.3914 21.6086 17.1789 21.7503 16.9373 21.8503C16.6956 21.9503 16.4414 22.0003 16.1748 22.0003H8.99977C8.44977 22.0003 7.97894 21.8044 7.58727 21.4128C7.1956 21.0211 6.99977 20.5503 6.99977 20.0003ZM2.02477 6.25026C1.92477 5.70026 2.0331 5.20442 2.34977 4.76276C2.66644 4.32109 3.09977 4.05026 3.64977 3.95026L14.4998 2.02526C15.0498 1.92526 15.5456 2.03359 15.9873 2.35026C16.4289 2.66692 16.6998 3.10026 16.7998 3.65026L17.0498 5.00026H8.99977C7.89977 5.00026 6.9581 5.39192 6.17477 6.17526C5.39144 6.95859 4.99977 7.90026 4.99977 9.00026V18.5503C4.7331 18.4003 4.50394 18.2003 4.31227 17.9503C4.1206 17.7003 3.99977 17.4169 3.94977 17.1003L2.02477 6.25026ZM13.4998 15.5003V17.5003C13.4998 17.7836 13.5956 18.0211 13.7873 18.2128C13.9789 18.4044 14.2164 18.5003 14.4998 18.5003C14.7831 18.5003 15.0206 18.4044 15.2123 18.2128C15.4039 18.0211 15.4998 17.7836 15.4998 17.5003V15.5003H17.4998C17.7831 15.5003 18.0206 15.4044 18.2123 15.2128C18.4039 15.0211 18.4998 14.7836 18.4998 14.5003C18.4998 14.2169 18.4039 13.9794 18.2123 13.7878C18.0206 13.5961 17.7831 13.5003 17.4998 13.5003H15.4998V11.5003C15.4998 11.2169 15.4039 10.9794 15.2123 10.7878C15.0206 10.5961 14.7831 10.5003 14.4998 10.5003C14.2164 10.5003 13.9789 10.5961 13.7873 10.7878C13.5956 10.9794 13.4998 11.2169 13.4998 11.5003V13.5003H11.4998C11.2164 13.5003 10.9789 13.5961 10.7873 13.7878C10.5956 13.9794 10.4998 14.2169 10.4998 14.5003C10.4998 14.7836 10.5956 15.0211 10.7873 15.2128C10.9789 15.4044 11.2164 15.5003 11.4998 15.5003H13.4998Z" fill="#141419"/>
</svg>
