<svg width="40" height="40" viewBox="0 0 40 40" fill="none" xmlns="http://www.w3.org/2000/svg">
<circle cx="20" cy="20" r="20" fill="#DEEAFF"/>
<path d="M17.6008 24.8C17.1608 24.8 16.7841 24.6433 16.4708 24.33C16.1574 24.0167 16.0008 23.64 16.0008 23.2V13.6C16.0008 13.16 16.1574 12.7833 16.4708 12.47C16.7841 12.1567 17.1608 12 17.6008 12H24.8008C25.2408 12 25.6174 12.1567 25.9308 12.47C26.2441 12.7833 26.4008 13.16 26.4008 13.6V23.2C26.4008 23.64 26.2441 24.0167 25.9308 24.33C25.6174 24.6433 25.2408 24.8 24.8008 24.8H17.6008ZM14.4008 28C13.9608 28 13.5841 27.8433 13.2708 27.53C12.9574 27.2167 12.8008 26.84 12.8008 26.4V16C12.8008 15.7733 12.8774 15.5833 13.0308 15.43C13.1841 15.2767 13.3741 15.2 13.6008 15.2C13.8274 15.2 14.0174 15.2767 14.1708 15.43C14.3241 15.5833 14.4008 15.7733 14.4008 16V26.4H22.4008C22.6274 26.4 22.8174 26.4767 22.9708 26.63C23.1241 26.7833 23.2008 26.9733 23.2008 27.2C23.2008 27.4267 23.1241 27.6167 22.9708 27.77C22.8174 27.9233 22.6274 28 22.4008 28H14.4008Z" fill="#1455E1"/>
<path d="M20.2275 19.0478L19.2216 17.9323C19.0778 17.7729 18.9102 17.6932 18.7186 17.6932C18.5269 17.6932 18.3593 17.7729 18.2156 17.9323C18.0719 18.0916 18 18.2809 18 18.5C18 18.7191 18.0719 18.9084 18.2156 19.0677L19.7246 20.761C19.8683 20.9203 20.0359 21 20.2275 21C20.4192 21 20.5868 20.9203 20.7305 20.761L23.7844 17.3745C23.9281 17.2151 24 17.0259 24 16.8068C24 16.5876 23.9281 16.3984 23.7844 16.239C23.6407 16.0797 23.4701 16 23.2725 16C23.0749 16 22.9042 16.0797 22.7605 16.239L20.2275 19.0478Z" fill="#DEEAFF"/>
</svg>
