<svg width="40" height="40" viewBox="0 0 40 40" fill="none" xmlns="http://www.w3.org/2000/svg">
<circle cx="20" cy="20" r="20" fill="#E6ECF5"/>
<path d="M14.1667 27.5C13.7083 27.5 13.316 27.3368 12.9896 27.0104C12.6632 26.684 12.5 26.2917 12.5 25.8333V14.1667C12.5 13.7083 12.6632 13.316 12.9896 12.9896C13.316 12.6632 13.7083 12.5 14.1667 12.5H23.4792C23.7014 12.5 23.9132 12.5417 24.1146 12.625C24.316 12.7083 24.4931 12.8264 24.6458 12.9792L27.0208 15.3542C27.1736 15.5069 27.2917 15.684 27.375 15.8854C27.4583 16.0868 27.5 16.2986 27.5 16.5208V25.8333C27.5 26.2917 27.3368 26.684 27.0104 27.0104C26.684 27.3368 26.2917 27.5 25.8333 27.5H14.1667ZM20 25C20.6944 25 21.2847 24.7569 21.7708 24.2708C22.2569 23.7847 22.5 23.1944 22.5 22.5C22.5 21.8056 22.2569 21.2153 21.7708 20.7292C21.2847 20.2431 20.6944 20 20 20C19.3056 20 18.7153 20.2431 18.2292 20.7292C17.7431 21.2153 17.5 21.8056 17.5 22.5C17.5 23.1944 17.7431 23.7847 18.2292 24.2708C18.7153 24.7569 19.3056 25 20 25ZM15.8333 18.3333H21.6667C21.9028 18.3333 22.1007 18.2535 22.2604 18.0938C22.4201 17.934 22.5 17.7361 22.5 17.5V15.8333C22.5 15.5972 22.4201 15.3993 22.2604 15.2396C22.1007 15.0799 21.9028 15 21.6667 15H15.8333C15.5972 15 15.3993 15.0799 15.2396 15.2396C15.0799 15.3993 15 15.5972 15 15.8333V17.5C15 17.7361 15.0799 17.934 15.2396 18.0938C15.3993 18.2535 15.5972 18.3333 15.8333 18.3333Z" fill="#0033A0"/>
</svg>
