<svg width="40" height="40" viewBox="0 0 40 40" fill="none" xmlns="http://www.w3.org/2000/svg">
<circle cx="20" cy="20" r="20" fill="#E6ECF5"/>
<path d="M15.2006 28C14.7606 28 14.3839 27.8433 14.0706 27.53C13.7573 27.2167 13.6006 26.84 13.6006 26.4V13.6C13.6006 13.16 13.7573 12.7833 14.0706 12.47C14.3839 12.1567 14.7606 12 15.2006 12H20.9406C21.1539 12 21.3573 12.04 21.5506 12.12C21.7439 12.2 21.9139 12.3133 22.0606 12.46L25.9406 16.34C26.0873 16.4867 26.2006 16.6567 26.2806 16.85C26.3606 17.0433 26.4006 17.2467 26.4006 17.46V18.72C26.4006 18.8667 26.3573 18.9933 26.2706 19.1C26.1839 19.2067 26.0739 19.2867 25.9406 19.34C25.7273 19.42 25.5239 19.5233 25.3306 19.65C25.1373 19.7767 24.9606 19.92 24.8006 20.08L20.4806 24.4C20.3339 24.5467 20.2173 24.7167 20.1306 24.91C20.0439 25.1033 20.0006 25.3067 20.0006 25.52V27.2C20.0006 27.4267 19.9239 27.6167 19.7706 27.77C19.6173 27.9233 19.4273 28 19.2006 28H15.2006ZM21.6006 27.2V25.88C21.6006 25.7733 21.6206 25.67 21.6606 25.57C21.7006 25.47 21.7606 25.38 21.8406 25.3L26.0206 21.14C26.1406 21.02 26.2739 20.9333 26.4206 20.88C26.5673 20.8267 26.7139 20.8 26.8606 20.8C27.0206 20.8 27.1739 20.83 27.3206 20.89C27.4673 20.95 27.6006 21.04 27.7206 21.16L28.4606 21.9C28.5673 22.02 28.6506 22.1533 28.7106 22.3C28.7706 22.4467 28.8006 22.5933 28.8006 22.74C28.8006 22.8867 28.7739 23.0367 28.7206 23.19C28.6673 23.3433 28.5806 23.48 28.4606 23.6L24.3006 27.76C24.2206 27.84 24.1306 27.9 24.0306 27.94C23.9306 27.98 23.8273 28 23.7206 28H22.4006C22.1739 28 21.9839 27.9233 21.8306 27.77C21.6773 27.6167 21.6006 27.4267 21.6006 27.2ZM26.8606 23.52L27.6006 22.74L26.8606 22L26.1006 22.76L26.8606 23.52ZM21.6006 17.6H24.8006L20.8006 13.6V16.8C20.8006 17.0267 20.8773 17.2167 21.0306 17.37C21.1839 17.5233 21.3739 17.6 21.6006 17.6Z" fill="#0033A0"/>
</svg>
