<svg width="40" height="40" viewBox="0 0 40 40" fill="none" xmlns="http://www.w3.org/2000/svg">
<circle cx="20" cy="20" r="20" fill="#E6ECF5"/>
<g clip-path="url(#clip0_104_2406)">
<path d="M26.2977 17.6504C26.2694 17.7029 26.1627 17.7224 26.1086 17.741C24.8017 18.1901 23.4155 18.4935 22.1263 18.9843C20.4368 19.6278 20.1907 20.3458 19.6748 22.078C19.3158 23.284 19.0389 24.5195 18.649 25.7147C18.2839 24.5231 18.0028 23.3012 17.6493 22.1058C17.1679 20.4782 16.9213 19.6703 15.3285 19.0399C13.9298 18.4863 12.4121 18.1871 11 17.664C12.1409 17.2805 13.3082 16.9816 14.452 16.6073C16.0756 16.0759 16.785 15.8289 17.4003 14.042C17.894 12.6082 18.1906 11.0632 18.649 9.61328C19.1667 11.1322 19.4423 12.7945 20.0022 14.2923C20.6489 16.0216 21.6643 16.2233 23.212 16.7185C24.2353 17.0458 25.2739 17.3245 26.2974 17.6504H26.2977Z" fill="#0033A0"/>
<path d="M27.9975 27.3553C28.0051 27.429 27.996 27.3993 27.9588 27.4112C27.0028 27.7199 25.9573 27.9593 25.029 28.328C23.9428 28.7591 23.7561 29.2452 23.4143 30.365C23.1484 31.2359 22.9609 32.1361 22.6761 33.0006C22.3968 32.1344 22.2039 31.2359 21.9379 30.365C21.5982 29.2529 21.4011 28.7568 20.3232 28.328C19.3706 27.949 18.3209 27.743 17.3547 27.3968C17.3435 27.337 17.378 27.3603 17.4122 27.3481C18.1395 27.0911 18.897 26.9137 19.6297 26.674C21.1819 26.1663 21.4576 25.988 21.9641 24.3178C22.2198 23.4742 22.4102 22.6057 22.6761 21.7656C23.0255 22.7979 23.2114 23.8968 23.5777 24.9227C23.8772 25.7614 24.1609 26.0845 24.9506 26.4104L27.9975 27.3556V27.3553Z" fill="#0033A0"/>
<path d="M27.8667 11.7825C27.8627 11.8256 27.8269 11.8247 27.7997 11.8358C26.9446 12.1918 25.4167 12.2541 24.9761 13.199C24.6464 13.9064 24.5493 14.8511 24.2714 15.5922C24.0345 14.9195 23.9126 14.2001 23.6765 13.5271C23.4403 12.8542 23.2529 12.6615 22.6245 12.4212C21.9799 12.1748 21.2914 12.0522 20.6494 11.7961C21.3055 11.563 22.0026 11.4304 22.6506 11.171C23.2238 10.9413 23.4249 10.7591 23.6503 10.1485C23.9068 9.45353 24.0243 8.69882 24.2714 8C24.5062 8.70466 24.6291 9.45909 24.8854 10.156C25.1194 10.7922 25.3453 10.973 25.9439 11.1993C26.5608 11.4326 27.2383 11.5792 27.8669 11.7825H27.8667Z" fill="#0033A0"/>
</g>
<defs>
<clipPath id="clip0_104_2406">
<rect width="17" height="25" fill="white" transform="translate(11 8)"/>
</clipPath>
</defs>
</svg>
