<svg width="18" height="18" viewBox="0 0 18 18" fill="none" xmlns="http://www.w3.org/2000/svg">
<path d="M10.875 13.5C10.35 13.5 9.90625 13.3188 9.54375 12.9563C9.18125 12.5938 9 12.15 9 11.625C9 11.1 9.18125 10.6562 9.54375 10.2938C9.90625 9.93125 10.35 9.75 10.875 9.75C11.4 9.75 11.8438 9.93125 12.2063 10.2938C12.5688 10.6562 12.75 11.1 12.75 11.625C12.75 12.15 12.5688 12.5938 12.2063 12.9563C11.8438 13.3188 11.4 13.5 10.875 13.5ZM3.75 16.5C3.3375 16.5 2.98438 16.3531 2.69063 16.0594C2.39687 15.7656 2.25 15.4125 2.25 15V4.5C2.25 4.0875 2.39687 3.73438 2.69063 3.44063C2.98438 3.14688 3.3375 3 3.75 3H4.5V2.25C4.5 2.0375 4.57188 1.85938 4.71563 1.71563C4.85938 1.57188 5.0375 1.5 5.25 1.5C5.4625 1.5 5.64063 1.57188 5.78438 1.71563C5.92813 1.85938 6 2.0375 6 2.25V3H12V2.25C12 2.0375 12.0719 1.85938 12.2156 1.71563C12.3594 1.57188 12.5375 1.5 12.75 1.5C12.9625 1.5 13.1406 1.57188 13.2844 1.71563C13.4281 1.85938 13.5 2.0375 13.5 2.25V3H14.25C14.6625 3 15.0156 3.14688 15.3094 3.44063C15.6031 3.73438 15.75 4.0875 15.75 4.5V15C15.75 15.4125 15.6031 15.7656 15.3094 16.0594C15.0156 16.3531 14.6625 16.5 14.25 16.5H3.75ZM3.75 15H14.25V7.5H3.75V15Z" fill="#141419"/>
</svg>
