<?xml version="1.0" encoding="UTF-8" standalone="no"?>
<svg
   class="svg-icon"
   style="overflow:hidden;fill:currentColor"
   viewBox="0 0 20 20"
   version="1.1"
   id="svg1"
   sodipodi:docname="excel.svg"
   inkscape:version="1.4.2 (ebf0e940d0, 2025-05-08)"
   width="20"
   height="20"
   xmlns:inkscape="http://www.inkscape.org/namespaces/inkscape"
   xmlns:sodipodi="http://sodipodi.sourceforge.net/DTD/sodipodi-0.dtd"
   xmlns="http://www.w3.org/2000/svg"
   xmlns:svg="http://www.w3.org/2000/svg">
  <defs
     id="defs1" />
  <sodipodi:namedview
     id="namedview1"
     pagecolor="#ffffff"
     bordercolor="#000000"
     borderopacity="0.25"
     inkscape:showpageshadow="2"
     inkscape:pageopacity="0.0"
     inkscape:pagecheckerboard="0"
     inkscape:deskcolor="#d1d1d1"
     inkscape:zoom="8.131728"
     inkscape:cx="22.873367"
     inkscape:cy="42.549382"
     inkscape:window-width="1912"
     inkscape:window-height="1011"
     inkscape:window-x="4"
     inkscape:window-y="28"
     inkscape:window-maximized="0"
     inkscape:current-layer="svg1" />
  <path
     d="m 16.315947,5.0177593 c -0.85759,0 -1.713351,0 -2.570917,0 0,0.4065151 0,0.8147014 0,1.2211932 0.857543,0 1.713303,0 2.570917,0 0,-0.4064715 0,-0.8146781 0,-1.2211932 z m 1.838164,8.5571767 c -0.0016,-3.026788 -0.0056,-6.0537524 0.0036,-9.0822507 -0.01269,-0.2966075 0.0094,-0.6245787 -0.179888,-0.8828704 -0.269867,-0.176143 -0.611536,-0.1551823 -0.921879,-0.1674733 -1.838192,0.00871 -3.676355,0.00533 -5.514499,0.00533 0,-0.4657713 0,-0.9298753 0,-1.3956931 h -1.090949 c -2.8169673,0.472797 -5.6357801,0.9315891 -8.4546647,1.3974069 0,4.0701297 0,8.1402586 0,12.2103876 2.8022486,0.465775 5.6064901,0.912497 8.4051827,1.395674 h 1.140392 c 0,-0.523384 0,-1.046743 0,-1.570149 1.904283,-0.0035 3.808449,0.0053 5.711021,0 0.306646,-0.01228 0.765738,-0.02094 0.839271,-0.383868 0.111853,-0.500646 0.05326,-1.018737 0.06237,-1.526452 z M 7.4039693,12.284059 C 7.0917292,11.556552 6.71174,10.853449 6.4875645,10.092733 c -0.2495828,0.708416 -0.6059467,1.376604 -0.8923299,2.070862 -0.4022857,-0.0053 -0.804504,-0.02095 -1.206555,-0.03664 0.4720279,-0.87756 0.9273283,-1.76196 1.414003,-2.6342505 C 5.3895171,8.5941438 4.9358078,7.7131876 4.5098451,6.8199133 4.913909,6.7972368 5.3177621,6.774599 5.7218022,6.7536556 5.9955076,7.435799 6.2948073,8.1090955 6.5207171,8.8088214 6.7630242,8.0674024 7.1248817,7.3695403 7.4351527,6.6524362 7.8501441,6.624502 8.2670768,6.6001213 8.6838465,6.5808628 8.1935438,7.5351458 7.7014669,8.4895393 7.2020188,9.440198 7.7070321,10.417262 8.222977,11.387169 8.7297724,12.364257 8.2871976,12.339741 7.8465639,12.313646 7.4039693,12.284037 Z M 17.601414,14.96192 c -2.020018,0 -4.040087,0 -6.05999,0 0,-0.348907 0,-0.697838 0,-1.046766 0.490256,0 0.97878,0 1.469079,0 0,-0.406495 0,-0.814702 0,-1.221198 -0.490299,0 -0.978823,0 -1.469079,0 0,-0.23204 0,-0.465771 0,-0.697814 0.490256,0 0.97878,0 1.469079,0 0,-0.406497 0,-0.814722 0,-1.221194 -0.490299,0 -0.978823,0 -1.469079,0 0,-0.232021 0,-0.465819 0,-0.697839 0.490256,0 0.97878,0 1.469079,0 0,-0.4064963 0,-0.8147027 0,-1.2211985 -0.490299,0 -0.978823,0 -1.469079,0 0,-0.2320403 0,-0.4657945 0,-0.6978107 0.490256,0 0.97878,0 1.469079,0 0,-0.4065199 0,-0.8147023 0,-1.2211981 -0.490299,0 -0.978823,0 -1.469079,0 0,-0.2320403 0,-0.4658187 0,-0.6978581 0.490256,0 0.97878,0 1.469079,0 0,-0.4064958 0,-0.8146792 0,-1.2211981 -0.490299,0 -0.978823,0 -1.469079,0 0,-0.3489078 0,-0.6978117 0,-1.0467427 2.019926,0 4.039996,0 6.05999,0 0,3.6635467 0,7.3271812 0,10.9908172 z M 16.315947,6.9368349 c -0.85759,0 -1.713351,0 -2.570917,0 0,0.4064957 0,0.8146782 0,1.2211981 0.857543,0 1.713303,0 2.570917,0 0,-0.4064957 0,-0.8147024 0,-1.2211981 z m 0,1.9190321 c -0.85759,0 -1.713351,0 -2.570917,0 0,0.4064967 0,0.8147017 0,1.221198 0.857543,0 1.713303,0 2.570917,0 0,-0.4064963 0,-0.8147013 0,-1.221198 z m 0,1.919056 c -0.85759,0 -1.713351,0 -2.570917,0 0,0.406473 0,0.814703 0,1.221198 0.857543,0 1.713303,0 2.570917,0 0,-0.406495 0,-0.814725 0,-1.221198 z m 0,1.919033 c -0.85759,0 -1.713351,0 -2.570917,0 0,0.406496 0,0.814703 0,1.221198 0.857543,0 1.713303,0 2.570917,0 0,-0.406495 0,-0.814702 0,-1.221198 z"
     id="path1"
     style="fill:#668000;stroke-width:0.022284" />
</svg>
