<svg width="14" height="8" viewBox="0 0 14 8" fill="none" xmlns="http://www.w3.org/2000/svg">
<path d="M12.5862 8L1.41415 8C1.2164 7.99996 1.0231 7.94129 0.858692 7.8314C0.694283 7.72152 0.566143 7.56535 0.490473 7.38265C0.414803 7.19995 0.395 6.99892 0.433567 6.80497C0.472135 6.61101 0.567342 6.43285 0.707152 6.293L6.29315 0.707C6.48068 0.519529 6.73499 0.414213 7.00015 0.414213C7.26532 0.414213 7.51962 0.519529 7.70715 0.707L13.2932 6.293C13.433 6.43285 13.5282 6.61102 13.5667 6.80497C13.6053 6.99892 13.5855 7.19995 13.5098 7.38265C13.4342 7.56535 13.306 7.72152 13.1416 7.8314C12.9772 7.94129 12.7839 7.99996 12.5862 8Z" fill="#0033A0"/>
</svg>
