<svg width="17" height="25" viewBox="0 0 17 25" fill="none" xmlns="http://www.w3.org/2000/svg">
<g clip-path="url(#clip0_104_1507)">
<path d="M15.2977 9.76443C15.2694 9.81488 15.1627 9.83357 15.1086 9.85146C13.8017 10.2826 12.4155 10.5738 11.1263 11.045C9.4368 11.6628 9.19074 12.352 8.67481 14.0149C8.31578 15.1727 8.03886 16.3588 7.64897 17.5062C7.28392 16.3623 7.00282 15.1893 6.64928 14.0416C6.16786 12.4791 5.92128 11.7036 4.32851 11.0984C2.92978 10.5669 1.41207 10.2797 0 9.77751C1.1409 9.40938 2.30821 9.1224 3.45199 8.76307C5.0756 8.25292 5.78504 8.01586 6.40033 6.30039C6.89403 4.92396 7.19057 3.44074 7.64897 2.04883C8.16673 3.50695 8.44234 5.10282 9.0022 6.54065C9.64888 8.20086 10.6643 8.3944 12.212 8.86986C13.2353 9.18406 14.2739 9.45156 15.2974 9.76443H15.2977Z" fill="white"/>
<path d="M16.9975 19.081C17.0051 19.1517 16.996 19.1231 16.9588 19.1346C16.0028 19.4309 14.9573 19.6608 14.029 20.0148C12.9428 20.4286 12.7561 20.8952 12.4143 21.9702C12.1484 22.8063 11.9609 23.6705 11.6761 24.5005C11.3968 23.6689 11.2039 22.8063 10.9379 21.9702C10.5982 20.9027 10.4011 20.4264 9.32319 20.0148C8.37056 19.6509 7.32093 19.4531 6.35471 19.1207C6.34346 19.0633 6.37798 19.0858 6.41223 19.074C7.13945 18.8273 7.897 18.657 8.62971 18.4269C10.1819 17.9394 10.4576 17.7683 10.9641 16.165C11.2198 15.355 11.4102 14.5213 11.6761 13.7148C12.0255 14.7058 12.2114 15.7608 12.5777 16.7456C12.8772 17.5508 13.1609 17.861 13.9506 18.1738L16.9975 19.0812V19.081Z" fill="white"/>
<path d="M16.8667 4.13115C16.8627 4.17253 16.8269 4.17173 16.7997 4.18241C15.9446 4.52412 14.4167 4.58391 13.9761 5.49103C13.6464 6.17017 13.5493 7.07703 13.2714 7.78847C13.0345 7.1427 12.9126 6.45208 12.6765 5.80604C12.4403 5.16001 12.2529 4.97501 11.6245 4.74436C10.9799 4.50783 10.2914 4.3901 9.64941 4.14423C10.3055 3.92052 11.0026 3.79319 11.6506 3.54411C12.2238 3.32361 12.4249 3.14875 12.6503 2.56251C12.9068 1.89539 13.0243 1.17086 13.2714 0.5C13.5062 1.17647 13.6291 1.90073 13.8854 2.56972C14.1194 3.18052 14.3453 3.35404 14.9439 3.57134C15.5608 3.79532 16.2383 3.93601 16.8669 4.13115H16.8667Z" fill="white"/>
</g>
<defs>
<clipPath id="clip0_104_1507">
<rect width="17" height="24" fill="white" transform="translate(0 0.5)"/>
</clipPath>
</defs>
</svg>
