<?xml version="1.0" encoding="UTF-8" standalone="no"?>
<svg
   viewBox="0 0 640 640"
   version="1.1"
   id="svg1"
   sodipodi:docname="knowIcon.svg"
   inkscape:version="1.4.2 (ebf0e940d0, 2025-05-08)"
   xmlns:inkscape="http://www.inkscape.org/namespaces/inkscape"
   xmlns:sodipodi="http://sodipodi.sourceforge.net/DTD/sodipodi-0.dtd"
   xmlns="http://www.w3.org/2000/svg"
   xmlns:svg="http://www.w3.org/2000/svg">
  <defs
     id="defs1" />
  <sodipodi:namedview
     id="namedview1"
     pagecolor="#ffffff"
     bordercolor="#000000"
     borderopacity="0.25"
     inkscape:showpageshadow="2"
     inkscape:pageopacity="0.0"
     inkscape:pagecheckerboard="0"
     inkscape:deskcolor="#d1d1d1"
     inkscape:zoom="1.15"
     inkscape:cx="320"
     inkscape:cy="320"
     inkscape:window-width="1912"
     inkscape:window-height="907"
     inkscape:window-x="4"
     inkscape:window-y="1140"
     inkscape:window-maximized="0"
     inkscape:current-layer="svg1" />
  <!--!Font Awesome Free v7.0.1 by @fontawesome - https://fontawesome.com License - https://fontawesome.com/license/free Copyright 2025 Fonticons, Inc.-->
  <path
     d="M192 576L512 576C529.7 576 544 561.7 544 544C544 526.3 529.7 512 512 512L512 445.3C530.6 438.7 544 420.9 544 400L544 112C544 85.5 522.5 64 496 64L448 64L448 233.4C448 245.9 437.9 256 425.4 256C419.4 256 413.6 253.6 409.4 249.4L368 208L326.6 249.4C322.4 253.6 316.6 256 310.6 256C298.1 256 288 245.9 288 233.4L288 64L192 64C139 64 96 107 96 160L96 480C96 533 139 576 192 576zM160 480C160 462.3 174.3 448 192 448L448 448L448 512L192 512C174.3 512 160 497.7 160 480z"
     id="path1"
     style="fill:#ffffff" />
</svg>
