<?xml version="1.0" encoding="UTF-8"?>
<svg version="1.1" xmlns="http://www.w3.org/2000/svg" width="833" height="182">
<path d="M0 0 C274.89 0 549.78 0 833 0 C833 60.06 833 120.12 833 182 C558.11 182 283.22 182 0 182 C0 121.94 0 61.88 0 0 Z " fill="#0150B4" transform="translate(0,0)"/>
<path d="M0 0 C10.8924076 9.20141845 19.24430455 22.55525698 20.64257812 36.99243164 C21.42493948 54.52171675 18.17328496 69.6597379 6.875 83.625 C-3.84543579 94.84022513 -18.58932097 101.85972791 -34.08129883 102.36083984 C-52.12883703 102.45889673 -67.14104663 97.85717532 -80.4140625 85.12109375 C-93.01892545 71.94328248 -96.18781756 57.24075654 -95.87109375 39.5 C-95.61477801 33.04211958 -94.47265102 27.66939566 -91.5625 21.875 C-91.07652344 20.87597656 -90.59054688 19.87695312 -90.08984375 18.84765625 C-82.5236228 4.66322786 -70.41303697 -5.33764088 -55.16796875 -10.34765625 C-54.30816406 -10.60417969 -53.44835938 -10.86070313 -52.5625 -11.125 C-51.83675781 -11.35058594 -51.11101562 -11.57617188 -50.36328125 -11.80859375 C-32.22123491 -16.67106458 -14.44950699 -11.08915653 0 0 Z " fill="#F7FAFC" transform="translate(116.5625,46.125)"/>
<path d="M0 0 C1.24918465 -0.02190399 1.24918465 -0.02190399 2.52360535 -0.04425049 C10.22232706 -0.17046557 17.92208723 -0.23906134 25.62162781 -0.29209328 C30.79197862 -0.32780753 35.9607674 -0.38098934 41.13037109 -0.47753906 C46.13196238 -0.57066696 51.13217329 -0.61906395 56.13458252 -0.63648605 C58.03560191 -0.65053169 59.93657591 -0.68006112 61.83709717 -0.72578812 C78.55978422 -1.10832887 78.55978422 -1.10832887 84.96484375 4.58691406 C86.33268201 6.10747346 87.66422293 7.66201648 88.9453125 9.25634766 C90.14102584 10.47717053 91.34699447 11.68818719 92.5703125 12.88134766 C93.11816406 13.43951172 93.66601562 13.99767578 94.23046875 14.57275391 C96.66834469 16.96620386 99.250314 19.17665548 101.85546875 21.38525391 C102.88994141 22.31144531 102.88994141 22.31144531 103.9453125 23.25634766 C104.93007065 24.13163116 105.9148288 25.00691467 106.9294281 25.90872192 C110.09438948 29.10723025 111.39092508 32.32211826 112.28930664 36.68945312 C112.52854024 37.78679685 112.52854024 37.78679685 112.77260685 38.90630913 C114.7385969 48.95114373 114.50128671 59.1350933 114.44140625 69.32666016 C114.44156162 71.50519865 114.44305686 73.68373742 114.44581604 75.86227417 C114.44718978 80.39219621 114.43480504 84.92179762 114.41186523 89.45166016 C114.38331302 95.24734953 114.38627778 101.0425142 114.39895535 106.83824348 C114.40591383 111.32158882 114.39812405 115.80481327 114.38569832 120.28814316 C114.38119746 122.42590751 114.38083502 124.56368487 114.38476372 126.70145035 C114.38768193 129.68242281 114.37114542 132.66267361 114.34936523 135.64355469 C114.35611771 136.95432732 114.35611771 136.95432732 114.36300659 138.2915802 C114.28876186 144.42369655 113.34414643 149.28179359 109.3828125 154.19384766 C107.9453125 155.25634766 107.9453125 155.25634766 105.9453125 155.25634766 C105.6153125 156.24634766 105.2853125 157.23634766 104.9453125 158.25634766 C67.6553125 158.25634766 30.3653125 158.25634766 -8.0546875 158.25634766 C-8.0546875 157.59634766 -8.0546875 156.93634766 -8.0546875 156.25634766 C-8.64894531 156.16095703 -9.24320313 156.06556641 -9.85546875 155.96728516 C-12.52887322 155.10305849 -13.4736352 154.03634455 -15.2421875 151.88134766 C-15.75136719 151.27548828 -16.26054687 150.66962891 -16.78515625 150.04541016 C-19.12229605 146.75184083 -19.18446871 143.8457026 -19.20185852 139.93818665 C-19.20901382 138.8349556 -19.21616913 137.73172455 -19.22354126 136.59506226 C-19.22623016 135.38411896 -19.22891907 134.17317566 -19.23168945 132.92553711 C-19.23826065 131.65047806 -19.24483185 130.37541901 -19.25160217 129.0617218 C-19.27262712 124.83103694 -19.28300459 120.60035178 -19.29296875 116.36962891 C-19.2970172 114.91148548 -19.30113415 113.45334224 -19.30531883 111.9951992 C-19.3243688 105.1426622 -19.338599 98.29013594 -19.3469308 91.43757755 C-19.35669628 83.53696027 -19.38299831 75.63662368 -19.42343169 67.73610526 C-19.45363532 61.62386604 -19.46840377 55.51170707 -19.47171181 49.39939469 C-19.47405791 45.75158777 -19.48296002 42.10408076 -19.50817299 38.45635414 C-19.53587887 34.38210142 -19.53160967 30.30847193 -19.5246582 26.23413086 C-19.53746826 25.03330872 -19.55027832 23.83248657 -19.56347656 22.59527588 C-19.52044494 15.67105472 -18.80833345 11.13158342 -15.0546875 5.25634766 C-10.03806061 0.59805126 -6.65148971 0.08870856 0 0 Z M7.9453125 37.25634766 C7.33945312 37.75521484 6.73359375 38.25408203 6.109375 38.76806641 C-2.70206602 46.68241502 -9.08334525 59.24072847 -10.35205078 71.01635742 C-10.49085271 73.89562689 -10.52224725 76.74897835 -10.4921875 79.63134766 C-10.48533936 80.64213379 -10.47849121 81.65291992 -10.47143555 82.69433594 C-10.31115247 90.14659859 -9.35734156 96.49793636 -6.0546875 103.25634766 C-5.72726563 104.01173828 -5.39984375 104.76712891 -5.0625 105.54541016 C0.11583705 116.24226698 9.36426045 125.08645252 19.9453125 130.25634766 C20.69554688 130.64306641 21.44578125 131.02978516 22.21875 131.42822266 C35.44669186 137.83333135 53.04074216 138.86595031 67.0078125 134.19384766 C73.55843051 131.67602054 79.30809614 128.41892795 84.9453125 124.25634766 C85.60015625 123.78455078 86.255 123.31275391 86.9296875 122.82666016 C96.68485163 115.18655374 103.66434232 102.40937455 105.66015625 90.24072266 C107.33913467 72.66894847 104.93320049 57.40481164 94.16796875 42.85400391 C84.60346758 31.41180925 70.92586165 22.99771722 55.9453125 21.25634766 C37.74414693 19.78486039 21.66364396 25.46474815 7.9453125 37.25634766 Z " fill="#0651B4" transform="translate(31.0546875,11.74365234375)"/>
<path d="M0 0 C18.85125 -0.0825 37.7025 -0.165 57.125 -0.25 C66.04877686 -0.30462402 66.04877686 -0.30462402 75.15283203 -0.36035156 C82.42553711 -0.37841797 82.42553711 -0.37841797 85.83175659 -0.3817749 C88.20735674 -0.38791149 90.58294453 -0.40196801 92.95846558 -0.42230225 C96.55993244 -0.45158558 100.16063893 -0.45562394 103.76220703 -0.45410156 C104.81798006 -0.468494 105.87375309 -0.48288643 106.96151924 -0.497715 C114.22088801 -0.45664258 117.47369085 0.78130505 122.8359375 5.67578125 C123.34382813 6.21589844 123.85171875 6.75601562 124.375 7.3125 C126.78303776 9.79974953 129.24383321 12.12493475 131.875 14.375 C135.74927757 17.7086807 139.31818809 21.28889748 142.890625 24.94140625 C144.65357932 26.66191908 146.39739608 28.10866742 148.375 29.5625 C156.58882706 37.18962513 157.82804235 54.98599322 158.37329102 65.60845947 C158.56942339 71.63736789 158.55765966 77.66396717 158.53125 83.6953125 C158.53395359 85.90721812 158.53784316 88.11912256 158.54284668 90.33102417 C158.54868864 94.92457606 158.54034377 99.51781328 158.52148438 104.11132812 C158.49856264 109.97734813 158.51193515 115.84264114 158.53577423 121.70863533 C158.55026159 126.25901732 158.54561499 130.80922805 158.53526306 135.35961533 C158.5326109 137.5228166 158.53581184 139.68603385 158.54518127 141.84921646 C158.55541068 144.87011011 158.53976241 147.8898372 158.51757812 150.91064453 C158.52567505 151.78769547 158.53377197 152.6647464 158.54211426 153.56837463 C158.42013342 162.59501075 155.63820305 170.05939403 149.171875 176.4296875 C141.22855014 182.17288281 134.9495346 182.56280061 125.33203125 182.45410156 C123.93934677 182.45287446 122.5466598 182.45341319 121.15397644 182.45556259 C117.44352091 182.45646111 113.73358735 182.43337466 110.02325439 182.40512085 C106.53436746 182.38224432 103.04560381 182.38126319 99.55664062 182.37841797 C89.37102533 182.35747622 79.18550596 182.30163118 69 182.25 C34.845 182.12625 34.845 182.12625 0 182 C0 121.94 0 61.88 0 0 Z M14.6875 19.0625 C12.39997484 23.04448824 11.87350549 25.81705428 11.85955811 30.33161926 C11.85384796 31.43774063 11.84813782 32.543862 11.84225464 33.6835022 C11.84113678 34.89758759 11.84001892 36.11167297 11.83886719 37.36254883 C11.83390228 38.64082047 11.82893738 39.9190921 11.82382202 41.23609924 C11.81070556 44.74447652 11.80425448 48.25283466 11.79981136 51.76123261 C11.79687928 53.95383286 11.7927742 56.14642788 11.78830719 58.3390255 C11.77463392 65.20117252 11.76496657 72.06330761 11.7611053 78.92546731 C11.75662553 86.84303335 11.7390808 94.76042667 11.7101047 102.67794019 C11.68847719 108.80034037 11.67840044 114.92269199 11.67706418 121.04512995 C11.67601687 124.70063873 11.67012495 128.35598511 11.65224457 132.01145363 C11.63267882 136.09083128 11.63705709 140.16984818 11.64355469 144.24926758 C11.6343399 145.45728027 11.62512512 146.66529297 11.6156311 147.90991211 C11.65342004 155.47279028 12.41464511 160.02684188 17.5 165.875 C19.83411946 168.32382421 19.83411946 168.32382421 23 168 C23 168.66 23 169.32 23 170 C60.29 170 97.58 170 136 170 C136.33 169.01 136.66 168.02 137 167 C138.33333333 166.33333333 139.66666667 165.66666667 141 165 C144.37446684 161.2505924 145.11717495 157.81847008 145.14717102 152.87495422 C145.15432632 152.06102203 145.16148163 151.24708984 145.16885376 150.40849304 C145.17154266 149.5238588 145.17423157 148.63922455 145.17700195 147.7277832 C145.18685875 146.31946228 145.18685875 146.31946228 145.19691467 144.88269043 C145.21663647 141.77205315 145.22831417 138.66146437 145.23828125 135.55078125 C145.24235678 134.48344442 145.2464323 133.4161076 145.25063133 132.31642723 C145.2714975 126.65585906 145.28579112 120.9953151 145.29516602 115.3347168 C145.30616989 109.52729454 145.34049815 103.72026185 145.38033772 97.91297626 C145.4066821 93.41637027 145.41487405 88.91985407 145.41844749 84.42317772 C145.42327563 82.28527412 145.43477971 80.14737349 145.45348549 78.00954628 C146.2136621 56.38770495 146.2136621 56.38770495 138.265625 36.9609375 C137.27046875 36.10757813 136.2753125 35.25421875 135.25 34.375 C134.71922852 33.90030273 134.18845703 33.42560547 133.64160156 32.93652344 C132.1240622 31.59015589 130.56310509 30.29318746 129 29 C127.5817753 27.75176799 126.16486286 26.50204134 124.75 25.25 C123.82380859 24.46302734 123.82380859 24.46302734 122.87890625 23.66015625 C120.0325559 21.14518973 117.40323619 18.42646495 114.76171875 15.69921875 C110.61194202 11.69666248 107.23210975 11.7032301 101.76831055 11.70947266 C100.92894958 11.70275543 100.08958862 11.69603821 99.22479248 11.68911743 C96.4453746 11.67009433 93.66619771 11.66621085 90.88671875 11.6640625 C88.95481771 11.65763677 87.02291765 11.65090859 85.09101868 11.64389038 C81.03827662 11.63190627 76.98561986 11.62821064 72.93286133 11.62939453 C67.74419012 11.6295976 62.55606736 11.60231273 57.36752605 11.56785011 C53.37575274 11.5455902 49.38411151 11.54155674 45.39228249 11.54261398 C43.47974574 11.54025599 41.56720546 11.53142132 39.65472984 11.51594925 C36.97605636 11.49631085 34.29856637 11.502119 31.61987305 11.51416016 C30.83264359 11.50292114 30.04541412 11.49168213 29.23432922 11.48010254 C22.62342639 11.55545979 18.75145581 13.68050446 14.6875 19.0625 Z " fill="#FAFBFD" transform="translate(0,0)"/>
<path d="M0 0 C2.625 2.75 2.625 2.75 4 5 C4.66 2.69 5.32 0.38 6 -2 C9.96 -2 13.92 -2 18 -2 C18.09066794 6.44990367 18.163926 14.89942388 18.20724869 23.34968472 C18.22805011 27.27424246 18.25622951 31.19844777 18.30175781 35.12280273 C18.34548418 38.9159341 18.36919299 42.70872824 18.37950897 46.50209236 C18.38685268 47.9432817 18.40119244 49.38445432 18.42292023 50.82549858 C18.56392893 60.57256093 17.42491762 67.49566812 12.25 75.8125 C6.08424822 81.8069809 -1.35524982 83.2114622 -9.6875 83.3125 C-10.46544922 83.34150391 -11.24339844 83.37050781 -12.04492188 83.40039062 C-18.7997412 83.47362887 -23.91996757 81.7113799 -29.0234375 77.21875 C-29.46945312 76.6515625 -29.91546875 76.084375 -30.375 75.5 C-30.83648438 74.9328125 -31.29796875 74.365625 -31.7734375 73.78125 C-34.5331151 69.77356533 -35 68.13917202 -35 63 C-30.38 63 -25.76 63 -21 63 C-20.34 64.65 -19.68 66.3 -19 68 C-16.01969358 71.24327464 -14.48495088 71.94611657 -10.0625 72.4375 C-6.115151 72.20661732 -3.28661703 71.29298863 0 69 C3.89963001 63.80049332 3.298055 58.20395962 3 52 C2.33613281 52.42152344 1.67226563 52.84304687 0.98828125 53.27734375 C0.10527344 53.82519531 -0.77773438 54.37304688 -1.6875 54.9375 C-2.55761719 55.48277344 -3.42773438 56.02804688 -4.32421875 56.58984375 C-9.05904026 59.08512924 -13.70264679 59.4414461 -19 59 C-24.80024145 57.16624669 -29.01292444 54.67057423 -33 50 C-33.70125 49.2575 -34.4025 48.515 -35.125 47.75 C-41.10878854 38.97377681 -41.1288053 28.52796387 -39.375 18.3125 C-37.25155175 10.2905844 -32.82252335 3.7332827 -25.9375 -0.8828125 C-17.15231187 -5.94846533 -8.59180045 -4.75129601 0 0 Z " fill="#F6F9FC" transform="translate(687,62)"/>
<path d="M0 0 C2.04519535 4.34604012 3.20161508 7.13603617 3 12 C5.62594784 11.8863485 8.25011547 11.75960946 10.875 11.625 C11.62136719 11.5940625 12.36773437 11.563125 13.13671875 11.53125 C17.53473188 11.44356169 17.53473188 11.44356169 21 9 C25.35861167 9.23560063 27.95112273 10.95112273 31 14 C31 15.32 31 16.64 31 18 C28.29120665 19.35439668 25.99066732 19.06501451 23 19 C23.495 20.98 23.495 20.98 24 23 C24.88042969 23.14695312 25.76085937 23.29390625 26.66796875 23.4453125 C37.34570215 25.5073831 37.34570215 25.5073831 40.3125 28.8125 C42.12643509 32.23882183 42.45422405 34.18451794 42 38 C35.9981863 38.21824777 30.80766296 37.5056904 25 36 C23.948125 37.485 23.948125 37.485 22.875 39 C20.74561875 41.56493651 20.3346233 41.94646027 16.875 42.5 C14 42 14 42 11 40 C14.6463609 48.65851177 14.6463609 48.65851177 21.78125 54.12109375 C23.88444823 54.81790578 25.99919531 55.48101362 28.125 56.10546875 C30.60095063 56.87583926 32.73152895 57.76215642 35 59 C35.33 57.68 35.66 56.36 36 55 C36.66 55 37.32 55 38 55 C39.63634257 62.2271797 38.37955479 67.42812338 35 74 C29.67622621 82.14524622 21.84233641 87.27911117 12.40625 89.65234375 C10.1230102 89.98222742 7.99150193 90.10155088 5.6875 90.0625 C3.8621875 90.0315625 3.8621875 90.0315625 2 90 C3.37599563 86.92265016 4.98604856 84.79946159 7.3125 82.375 C11.77213442 77.37423839 15.51968672 71.81217064 16.37109375 65.0546875 C15.89968888 61.17428109 14.50851658 59.32058007 12.125 56.25 C11.40570313 55.30640625 10.68640625 54.3628125 9.9453125 53.390625 C8.0656947 50.9975845 8.0656947 50.9975845 6 49 C2.44222831 49.27367475 -0.63498152 49.87072262 -4 51.0625 C-8.36093711 52.42529285 -12.28359022 52.47899808 -16.6875 51.25 C-19.11259361 50.75368034 -19.11259361 50.75368034 -21.3125 52.375 C-23.78030842 56.2138131 -23.53840948 59.53753809 -23 64 C-21.96922007 67.40942442 -20.55988814 70.58479668 -19.0625 73.8125 C-18.32190552 75.46380824 -17.58353807 77.1161175 -16.84765625 78.76953125 C-16.51773682 79.48729736 -16.18781738 80.20506348 -15.84790039 80.94458008 C-15.02149243 82.94789957 -14.46810744 84.88712647 -14 87 C-24.70804343 84.97961445 -33.78418154 80.10463227 -40 71 C-46.30286491 60.8986085 -47.40757285 50.70639785 -47 39 C-46.34 39 -45.68 39 -45 39 C-43.41152137 41.20571604 -42.04182517 43.51217315 -40.6328125 45.8359375 C-38.90635314 48.12411569 -37.63481377 48.96204306 -35 50 C-34.154375 49.360625 -33.30875 48.72125 -32.4375 48.0625 C-29.09271435 45.8033727 -26.02603008 45.32208241 -22 45 C-22.66 43.02 -23.32 41.04 -24 39 C-24.5775 39.350625 -25.155 39.70125 -25.75 40.0625 C-28.35801776 41.14917407 -29.39417629 40.93065133 -32 40 C-32 38.68 -32 37.36 -32 36 C-29.95832206 34.02028049 -27.98166724 32.29956861 -25.75 30.5625 C-21.6467553 27.31146766 -18.13186094 24.25446863 -15 20 C-11.22222222 15.11111111 -11.22222222 15.11111111 -9 14 C-9.57584432 11.61435923 -10.22227595 9.33317216 -11 7 C-14.3 6.67 -17.6 6.34 -21 6 C-21.33 4.35 -21.66 2.7 -22 1 C-14.66236293 -0.17402193 -7.41834582 -0.09377123 0 0 Z " fill="#0551B4" transform="translate(77,47)"/>
<path d="M0 0 C6.94904808 4.68774907 10.0597024 9.95623519 12.578125 17.80078125 C14.50037632 27.8214062 13.63047655 38.88798037 9 48 C4.91448094 53.9733774 0.24484572 58.50503183 -7 60 C-14.1747192 60.71747192 -19.52443672 60.58363427 -25.4765625 56.2890625 C-27 55 -27 55 -29 53 C-29.33 62.57 -29.66 72.14 -30 82 C-34.62 82 -39.24 82 -44 82 C-44 54.28 -44 26.56 -44 -2 C-39.38 -2 -34.76 -2 -30 -2 C-29.67 0.31 -29.34 2.62 -29 5 C-28.55269531 4.59007813 -28.10539062 4.18015625 -27.64453125 3.7578125 C-19.3031533 -3.67650729 -10.15704395 -5.62944645 0 0 Z " fill="#F5F8FB" transform="translate(408,62)"/>
<path d="M0 0 C4.62 0 9.24 0 14 0 C14.33 2.31 14.66 4.62 15 7 C15.47050781 6.57847656 15.94101563 6.15695313 16.42578125 5.72265625 C17.04839844 5.17480469 17.67101562 4.62695312 18.3125 4.0625 C18.92738281 3.51722656 19.54226562 2.97195312 20.17578125 2.41015625 C25.32878035 -1.57321136 32.85828455 -0.47086485 39 0 C45.65493615 1.66373404 50.30396318 6.38749964 54 12 C59.04013799 21.973039 58.4190848 36.19188721 55.02734375 46.6015625 C51.99999162 53.66922108 47.84077913 58.01595656 40.78125 61.15234375 C34.24748805 63.14367288 27.65782803 63.13216905 21.4375 60.1875 C18.7429831 58.67509374 17.27338436 57.27338436 15 55 C14.67 64.24 14.34 73.48 14 83 C9.38 83 4.76 83 0 83 C0 55.61 0 28.22 0 0 Z " fill="#F6F9FC" transform="translate(191,60)"/>
<path d="M0 0 C8.49133335 4.99162125 12.53722989 10.63398118 15.5625 19.9375 C16.0575 21.4225 16.0575 21.4225 16.5625 22.9375 C17.46879899 33.41222482 15.43284841 42.36449951 9.296875 50.9609375 C4.13342137 56.84541394 -2.74649809 59.54201994 -10.44921875 60.19140625 C-20.25677233 60.54452374 -27.55627635 58.44608063 -34.8671875 51.78125 C-41.43117709 44.07427715 -42.86906514 35.4773998 -42.77734375 25.68359375 C-42.01689989 17.30122986 -38.62762778 9.97705665 -32.33984375 4.3359375 C-23.04954197 -2.49348352 -10.75636141 -5.04721574 0 0 Z " fill="#F5F8FC" transform="translate(472.4375,61.0625)"/>
<path d="M0 0 C6.67451825 3.76488678 11.59205803 8.34641269 14.5625 15.5 C17.17871787 24.95108704 16.8013637 36.16220798 12.94921875 45.1640625 C8.57899906 52.87318161 1.82792171 56.76569276 -6.375 59.5 C-16.03391815 60.26618206 -24.34459684 59.85134973 -32.3671875 54.0625 C-38.49791727 48.58957385 -42.15041648 41.56108702 -42.8203125 33.36328125 C-43.2433125 23.60499667 -42.08274756 15.22541027 -36.125 7.1875 C-26.22554651 -2.48696591 -12.90103917 -5.96429952 0 0 Z " fill="#F6F8FC" transform="translate(337.375,61.5)"/>
<path d="M0 0 C0.75192627 -0.01869141 1.50385254 -0.03738281 2.27856445 -0.05664062 C9.37409287 0.02417582 14.61710749 2.29228288 19.6875 7.25 C24.50293506 14.40436067 25.30921517 20.50330525 25.16796875 28.90625 C25.16372391 29.8715564 25.15947906 30.83686279 25.15510559 31.8314209 C25.13843097 34.8879083 25.10079992 37.94371485 25.0625 41 C25.04743866 43.08332375 25.0337528 45.16665793 25.02148438 47.25 C24.98856424 52.33359215 24.93686016 57.41668099 24.875 62.5 C20.255 62.5 15.635 62.5 10.875 62.5 C10.875 59.53 10.875 56.56 10.875 53.5 C10.215 53.5 9.555 53.5 8.875 53.5 C8.5965625 54.36625 8.5965625 54.36625 8.3125 55.25 C5.95246861 58.94396217 2.11022568 60.80091707 -2.0234375 62.09375 C-8.86875329 63.41700807 -15.3744858 63.24480272 -21.47265625 59.703125 C-25.4340971 56.81867162 -27.81911003 53.17943905 -29.125 48.5 C-29.80676331 42.55891976 -29.04105596 39.16335082 -25.6015625 34.25390625 C-20.09960669 27.71851429 -11.28277099 25.58235782 -3.125 24.5 C-0.66745859 24.43421998 1.79168778 24.41430838 4.25 24.4375 C6.11785156 24.45103516 6.11785156 24.45103516 8.0234375 24.46484375 C9.43496094 24.48224609 9.43496094 24.48224609 10.875 24.5 C10.61879316 22.8934324 10.34444129 21.2897517 10.0625 19.6875 C9.91167969 18.79417969 9.76085937 17.90085937 9.60546875 16.98046875 C8.81263629 14.2882302 8.04772587 13.22491214 5.875 11.5 C1.20887832 9.66688077 -3.71714499 10.01266557 -8.375 11.625 C-11.64722186 13.85606036 -12.6711127 15.86528174 -14.125 19.5 C-18.415 19.5 -22.705 19.5 -27.125 19.5 C-27.00343278 13.66477356 -25.29874261 10.49581314 -21.2421875 6.30078125 C-14.86428627 0.876035 -8.10238354 0.13905408 0 0 Z " fill="#F4F7FB" transform="translate(585.125,58.5)"/>
<path d="M0 0 C6.34886095 5.06733161 8.86188248 10.81862368 10.796875 18.55859375 C10.796875 22.51859375 10.796875 26.47859375 10.796875 30.55859375 C-3.063125 30.55859375 -16.923125 30.55859375 -31.203125 30.55859375 C-28.52880687 42.85676217 -28.52880687 42.85676217 -23.203125 47.55859375 C-19.72866107 49.29582571 -16.00189843 49.01827726 -12.203125 48.55859375 C-7.11976103 46.06312416 -6.37459619 44.98727173 -4.203125 39.55859375 C0.086875 39.55859375 4.376875 39.55859375 8.796875 39.55859375 C7.71951442 46.02275722 6.40191334 49.07352634 1.796875 53.55859375 C-6.60278132 58.92908267 -14.3190995 60.41753299 -24.203125 59.55859375 C-31.44539747 57.8093064 -36.03509529 53.59544113 -40.203125 47.55859375 C-45.50065035 38.26844819 -45.73849525 25.43038263 -43.140625 15.24609375 C-40.23329371 7.02443133 -35.08768463 1.42276915 -27.4140625 -2.56640625 C-18.37286295 -6.14454883 -8.13636397 -5.32325941 0 0 Z " fill="#F4F7FB" transform="translate(759.203125,63.44140625)"/>
<path d="M0 0 C4.7049926 2.70512921 7.62779737 7.17586207 9.17478943 12.33270264 C9.66154518 14.67592719 9.7450985 16.78414742 9.73852539 19.17675781 C9.73844986 20.09741028 9.73837433 21.01806274 9.73829651 21.96661377 C9.73313522 22.95216248 9.72797394 23.93771118 9.72265625 24.953125 C9.7212413 25.96848328 9.71982635 26.98384155 9.71836853 28.02996826 C9.71277516 31.27000892 9.70022385 34.50998025 9.6875 37.75 C9.68248414 39.94791567 9.67792139 42.14583242 9.67382812 44.34375 C9.6628079 49.72919334 9.64554778 55.11458492 9.625 60.5 C5.005 60.5 0.385 60.5 -4.375 60.5 C-4.38958252 59.19329346 -4.40416504 57.88658691 -4.41918945 56.5402832 C-4.47722815 51.68518925 -4.55446116 46.83055637 -4.63745117 41.97583008 C-4.67067422 39.87597139 -4.6987143 37.77602397 -4.72143555 35.67602539 C-4.75502936 32.65472656 -4.80734834 29.63423899 -4.86328125 26.61328125 C-4.86967117 25.67664139 -4.8760611 24.74000153 -4.88264465 23.77497864 C-4.99202076 18.90942539 -5.14457227 15.4146348 -8.375 11.5 C-10.82471624 10.27514188 -12.51734461 10.33277192 -15.25 10.3125 C-16.11367188 10.29832031 -16.97734375 10.28414062 -17.8671875 10.26953125 C-20.60213559 10.52087383 -22.04160164 11.07962056 -24.375 12.5 C-28.4716289 17.80180346 -28.97483085 23.55530615 -28.984375 30.03125 C-29.00091125 30.90777222 -29.01744751 31.78429443 -29.03448486 32.68737793 C-29.08266503 35.45832535 -29.10426847 38.22872523 -29.125 41 C-29.15318484 42.89065211 -29.18311576 44.78127904 -29.21484375 46.671875 C-29.28841555 51.28120485 -29.33817268 55.89023608 -29.375 60.5 C-33.995 60.5 -38.615 60.5 -43.375 60.5 C-43.375 40.37 -43.375 20.24 -43.375 -0.5 C-38.755 -0.5 -34.135 -0.5 -29.375 -0.5 C-29.045 2.47 -28.715 5.44 -28.375 8.5 C-27.715 7.5925 -27.055 6.685 -26.375 5.75 C-19.71119627 -2.10509825 -9.47910052 -4.00626135 0 0 Z " fill="#F5F8FB" transform="translate(823.375,60.5)"/>
<path d="M0 0 C4.44546991 2.80922156 8.5866895 6.45653779 9.96484375 11.66796875 C10.25 13.875 10.25 13.875 10.375 17.4375 C6.415 17.4375 2.455 17.4375 -1.625 17.4375 C-2.016875 16.509375 -2.40875 15.58125 -2.8125 14.625 C-4.82043178 11.09380963 -5.90075115 9.96105635 -9.625 8.4375 C-13.40213372 8.0328071 -15.93644916 8.18303556 -19.5 9.5 C-22.46970845 12.20767535 -22.40390912 14.53156118 -22.625 18.4375 C-18.12667321 21.61656191 -13.58045191 22.5457364 -8.3125 23.75 C0.15303372 25.83994866 6.24432966 27.93716139 11.375 35.3125 C13.02583514 40.47135981 13.05606622 44.50781237 11.25 49.625 C7.58086467 55.12870299 2.64907149 58.4805982 -3.625 60.4375 C-6.57461483 60.88755213 -9.456883 60.96214103 -12.4375 60.9375 C-13.62508911 60.93000732 -13.62508911 60.93000732 -14.83666992 60.92236328 C-22.86073209 60.68387009 -29.05614007 58.44695476 -34.6875 52.5625 C-36.84835874 49.07724397 -37.38114594 46.50173438 -37.625 42.4375 C-35.52258397 42.30253749 -33.4177039 42.20552693 -31.3125 42.125 C-30.14074219 42.06699219 -28.96898437 42.00898437 -27.76171875 41.94921875 C-24.625 42.4375 -24.625 42.4375 -22.84375 44.84375 C-22.4415625 45.6996875 -22.039375 46.555625 -21.625 47.4375 C-18.13420917 50.32986955 -15.15596918 50.89681204 -10.62890625 50.7421875 C-7.60462064 50.2823546 -5.22343115 48.99655869 -2.625 47.4375 C-2.13532578 42.83283322 -2.13532578 42.83283322 -3.890625 38.80078125 C-5.77703019 37.31799879 -7.27771713 36.65229241 -9.5625 35.9375 C-10.74972656 35.55851562 -10.74972656 35.55851562 -11.9609375 35.171875 C-13.82426316 34.65823098 -15.70801148 34.21578111 -17.6015625 33.828125 C-24.92069929 32.30870926 -29.63598801 30.10993829 -34.625 24.4375 C-36.72041751 20.24666498 -36.03772631 15.00141554 -35.625 10.4375 C-33.18150565 4.83782546 -28.90582601 2.15923989 -23.625 -0.5625 C-16.91437755 -2.79937415 -6.4749301 -2.95347689 0 0 Z " fill="#F5F7FB" transform="translate(534.625,60.5625)"/>
<path d="M0 0 C4.62 0 9.24 0 14 0 C14 29.37 14 58.74 14 89 C9.38 89 4.76 89 0 89 C0 59.63 0 30.26 0 0 Z " fill="#F7F9FC" transform="translate(622,32)"/>
<path d="M0 0 C4.38212462 2.82136791 6.59688031 6.76841755 7.8359375 11.83203125 C9.06991903 19.59680183 8.86097324 27.32973449 5.25 34.4375 C2.19193163 38.10718205 0.03293969 40.16650213 -4.8359375 40.640625 C-9.66335921 40.73948005 -12.88041305 40.64372918 -16.75 37.4375 C-22.16106832 31.87182972 -22.86577845 26.39581272 -23.0625 18.9375 C-22.92967638 11.21602003 -21.15477635 6.16983856 -15.75 0.4375 C-11.14879795 -3.01340154 -4.92751415 -2.46905548 0 0 Z " fill="#034FB3" transform="translate(466.75,70.5625)"/>
<path d="M0 0 C4.63137471 2.74742567 7.4859257 5.78564132 9 11 C9.35384604 14.10807712 9.41560501 17.18638224 9.4375 20.3125 C9.47037109 21.12912109 9.50324219 21.94574219 9.53710938 22.78710938 C9.59218724 29.07099298 7.9359309 33.11132393 4 38 C0.23295473 41.44415568 -3.64938176 41.52249696 -8.56640625 41.33984375 C-12.32930504 40.81436671 -14.25895632 39.61051779 -17 37 C-20.64115812 31.50427441 -21.68688593 26.51298547 -21.5625 20 C-21.55444336 19.20907959 -21.54638672 18.41815918 -21.53808594 17.60327148 C-21.33454588 11.68405682 -20.35210399 7.2774965 -16 3 C-11.11965477 -1.44972653 -6.18058686 -1.6707059 0 0 Z " fill="#0550B4" transform="translate(330,70)"/>
<path d="M0 0 C0 3.96 0 7.92 0 12 C-1.85625 12.0825 -3.7125 12.165 -5.625 12.25 C-10.82572129 12.71500567 -14.18286839 13.18286839 -18 17 C-23.54082618 25.00052717 -22.66971439 34.77084108 -22.75 44.0625 C-22.77820088 45.70771317 -22.80813397 47.3528976 -22.83984375 48.99804688 C-22.91322044 52.99864588 -22.96309129 56.99890516 -23 61 C-27.29 61 -31.58 61 -36 61 C-36 41.2 -36 21.4 -36 1 C-31.71 1 -27.42 1 -23 1 C-22.67 3.97 -22.34 6.94 -22 10 C-21.13375 8.906875 -20.2675 7.81375 -19.375 6.6875 C-13.56247166 0.00985117 -8.5035766 -0.34473959 0 0 Z " fill="#F8FAFC" transform="translate(294,60)"/>
<path d="M0 0 C4.80522829 2.45600557 6.50181719 6.25908816 8.2734375 11.15625 C10.36460571 19.34103741 9.6736778 28.34891512 6 36 C2.25929038 39.74070962 -0.5348762 41.16236765 -5.75 41.3125 C-10.65147237 41.23481096 -13.34888843 40.47724911 -17 37 C-22.63998767 30.30251464 -21.68450707 21.2056341 -21 13 C-20.17735054 8.41083981 -18.50863568 5.16965001 -15 2.0625 C-9.82997272 -1.49189376 -5.92862549 -1.29656007 0 0 Z " fill="#034FB3" transform="translate(398,70)"/>
<path d="M0 0 C4.35953335 2.45223751 6.98815315 5.9363526 8.5625 10.703125 C10.13288754 18.9476596 10.1182166 28.58721012 6 36 C3.14098277 39.43082068 1.73320783 40.7353104 -2.66015625 41.40625 C-6.70105044 41.53677686 -10.10114043 41.30599475 -13.9375 40 C-19.01053873 35.08068971 -21.11439756 28.31332478 -21.25 21.375 C-21.13570939 14.33054229 -20.09462327 7.57957916 -15 2.375 C-10.43383836 -1.04476361 -5.45449977 -0.98788928 0 0 Z " fill="#0450B3" transform="translate(225,70)"/>
<path d="M0 0 C4.16696517 1.90985904 5.46838328 4.59455932 7.3125 8.625 C10.08328683 16.29534891 9.84674724 23.4069416 6.98046875 31.0234375 C5.04194226 34.93138333 2.3891252 37.23232555 -1.375 39.3125 C-6.23336359 40.58492856 -9.6617698 40.68223501 -14.1875 38.375 C-18.28556433 34.91441235 -21.00386862 31.30017074 -22 26 C-22.80768992 15.98994137 -21.91389661 9.69667593 -15.5 2 C-11.01921534 -1.38064316 -5.28993121 -0.76633321 0 0 Z " fill="#0550B4" transform="translate(683,70)"/>
<path d="M0 0 C0.62460568 9.75078864 0.62460568 9.75078864 -1.75 14.5 C-6.09887087 19.33207875 -9.02006818 20.78327769 -15.4375 21.25 C-19.27127991 20.98096281 -20.98869568 20.32300619 -24 18 C-26.50031654 14.24952518 -26.53603554 12.44143734 -26 8 C-19.86846411 -0.70282514 -9.66904511 -0.44173303 0 0 Z " fill="#034FB3" transform="translate(596,91)"/>
<path d="M0 0 C5.61 0 11.22 0 17 0 C14.30179936 2.15856051 11.59957729 4.31232972 8.875 6.4375 C4.20466495 10.60018994 2.82451055 13.8938884 2 20 C1.90348731 22.0663369 1.85278659 24.13514349 1.83937073 26.20368958 C1.8293251 27.42739761 1.81927948 28.65110565 1.80892944 29.91189575 C1.80290065 31.25482116 1.79701555 32.59774722 1.79125977 33.94067383 C1.78171129 35.36536381 1.77181971 36.79005153 1.76161194 38.21473694 C1.73035188 42.87880746 1.7099793 47.54289516 1.69140625 52.20703125 C1.68810893 53.00218069 1.68481161 53.79733013 1.68141437 54.616575 C1.65064787 62.12256276 1.62395799 69.62855479 1.60699558 77.13458729 C1.58508684 86.71438976 1.5430835 96.29363212 1.47355801 105.87321073 C1.42625176 112.62160861 1.4020536 119.36985565 1.3947987 126.1184141 C1.38985413 130.14361961 1.3748873 134.16819215 1.3350544 138.19321632 C1.29805437 141.98148568 1.28982111 145.76876395 1.30306053 149.5571804 C1.30300681 150.94185741 1.29280303 152.32657991 1.2713089 153.71109009 C1.14501904 162.31025384 1.83037802 168.63064626 8 175 C10.5631017 176.93301999 13.16944543 178.4972109 16 180 C17.485 180.99 17.485 180.99 19 182 C12.73 182 6.46 182 0 182 C0 121.94 0 61.88 0 0 Z " fill="#E0EAF5" transform="translate(0,0)"/>
<path d="M0 0 C3.44072683 1.69929774 5.48634339 4.08942692 7.375 7.4375 C8 10 8 10 8 16 C-0.91 16 -9.82 16 -19 16 C-19 9.19277108 -19 9.19277108 -16.75 5.75 C-16.33234375 5.08484375 -15.9146875 4.4196875 -15.484375 3.734375 C-11.46965441 -0.95650906 -5.73955335 -0.88718648 0 0 Z " fill="#0850B3" transform="translate(748,69)"/>
<path d="M0 0 C2.04713604 2.72951473 3.58663327 5.01895236 5.1875 7.9375 C7.95712207 12.45812934 11.42321521 14.5296852 16 17 C16.99 17.66 17.98 18.32 19 19 C12.73 19 6.46 19 0 19 C0 12.73 0 6.46 0 0 Z " fill="#0B51B4" transform="translate(0,163)"/>
<path d="M0 0 C5.61 0 11.22 0 17 0 C14.37745308 2.09803754 11.7406172 4.18372948 9 6.125 C4.91789138 9.47740527 3.08072781 14.25851848 1 19 C0.67 19 0.34 19 0 19 C0 12.73 0 6.46 0 0 Z " fill="#044DB3" transform="translate(0,0)"/>
<path d="M0 0 C2.21854707 4.62197306 3.38281159 7.76824163 3 13 C0.81024227 9.71536341 0.00193437 6.79303725 -1 3 C-5.60846838 2.6744766 -5.60846838 2.6744766 -9.90625 4 C-12.50139771 5.23947353 -14.39039996 5.20025263 -17.25 5.125 C-18.14203125 5.10695313 -19.0340625 5.08890625 -19.953125 5.0703125 C-20.96632812 5.03550781 -20.96632812 5.03550781 -22 5 C-22 3.68 -22 2.36 -22 1 C-14.66236293 -0.17402193 -7.41834582 -0.09377123 0 0 Z " fill="#1654B5" transform="translate(77,47)"/>
<path d="M0 0 C0.80824219 0.10183594 1.61648438 0.20367187 2.44921875 0.30859375 C3.06410156 0.39238281 3.67898438 0.47617188 4.3125 0.5625 C4.3125 0.8925 4.3125 1.2225 4.3125 1.5625 C3.67183594 1.541875 3.03117187 1.52125 2.37109375 1.5 C-3.1640854 1.62191731 -3.1640854 1.62191731 -7.8046875 4.375 C-8.98740079 5.79628636 -10.12778049 7.25428642 -11.21484375 8.75 C-12.6875 10.5625 -12.6875 10.5625 -15.6875 11.5625 C-14.36521571 5.87667757 -12.28494698 3.8463907 -7.6875 0.5625 C-4.59271121 -0.46909626 -3.16118607 -0.41232862 0 0 Z " fill="#3466BC" transform="translate(393.6875,69.4375)"/>
<path d="M0 0 C1.65 1.65 3.3 3.3 5 5 C3.68 5 2.36 5 1 5 C1 12.92 1 20.84 1 29 C0.67 29 0.34 29 0 29 C0 19.43 0 9.86 0 0 Z " fill="#3157B5" transform="translate(378,114)"/>
<path d="M0 0 C3.96 0 7.92 0 12 0 C12 3.63 12 7.26 12 11 C11.67 11 11.34 11 11 11 C11 8.03 11 5.06 11 2 C6.38 2.33 1.76 2.66 -3 3 C-2.01 2.67 -1.02 2.34 0 2 C0 1.34 0 0.68 0 0 Z " fill="#1F54B6" transform="translate(584,91)"/>
<path d="M0 0 C4.55193954 3.79777205 9.00343222 7.61352317 13 12 C13 12.99 13 13.98 13 15 C11 15 11 15 9.4140625 13.42578125 C8.82367188 12.72839844 8.23328125 12.03101563 7.625 11.3125 C7.00753906 10.58417969 6.39007813 9.85585938 5.75390625 9.10546875 C5.17511719 8.41066406 4.59632813 7.71585938 4 7 C3.195625 6.05125 2.39125 5.1025 1.5625 4.125 C0 2 0 2 0 0 Z " fill="#1E55B6" transform="translate(128,29)"/>
<path d="M0 0 C0.66 0 1.32 0 2 0 C3.32 2.31 4.64 4.62 6 7 C5.01 7 4.02 7 3 7 C2.67 10.63 2.34 14.26 2 18 C1.67 18 1.34 18 1 18 C-0.0712828 11.97403427 -0.09945415 6.11090483 0 0 Z " fill="#356ABD" transform="translate(30,86)"/>
<path d="M0 0 C4.92307692 4.18461538 4.92307692 4.18461538 5.3125 8.3125 C5.1578125 9.6428125 5.1578125 9.6428125 5 11 C2.36 11 -0.28 11 -3 11 C-3 10.34 -3 9.68 -3 9 C-1.02 9 0.96 9 3 9 C2.505 8.071875 2.01 7.14375 1.5 6.1875 C0 3 0 3 0 0 Z " fill="#225AB8" transform="translate(114,74)"/>
<path d="M0 0 C0 0.66 0 1.32 0 2 C-1.98 2.33 -3.96 2.66 -6 3 C-6 3.66 -6 4.32 -6 5 C-11.76926889 6.40333568 -17.18143105 5.67296616 -23 5 C-23 4.67 -23 4.34 -23 4 C-21.90300781 3.87882812 -20.80601562 3.75765625 -19.67578125 3.6328125 C-18.22131177 3.46390637 -16.76688696 3.29461519 -15.3125 3.125 C-14.59126953 3.04636719 -13.87003906 2.96773438 -13.12695312 2.88671875 C-8.69688431 2.36077451 -4.25470439 0 0 0 Z " fill="#3C6AC0" transform="translate(476,117)"/>
<path d="M0 0 C0.33 0 0.66 0 1 0 C1.086985 3.77068832 1.14038579 7.54111932 1.1875 11.3125 C1.21263672 12.38435547 1.23777344 13.45621094 1.26367188 14.56054688 C1.27333984 15.58857422 1.28300781 16.61660156 1.29296875 17.67578125 C1.3086792 18.62364502 1.32438965 19.57150879 1.34057617 20.5480957 C1 23 1 23 -2 26 C-1.34 17.42 -0.68 8.84 0 0 Z " fill="#3661BB" transform="translate(137,83)"/>
<path d="M0 0 C-1.46966358 3.39859703 -3.38037514 5.64963709 -6 8.25 C-6.70125 8.95640625 -7.4025 9.6628125 -8.125 10.390625 C-10 12 -10 12 -12 12 C-10.53033642 8.60140297 -8.61962486 6.35036291 -6 3.75 C-5.29875 3.04359375 -4.5975 2.3371875 -3.875 1.609375 C-2 0 -2 0 0 0 Z " fill="#D4E0F2" transform="translate(44,46)"/>
<path d="M0 0 C0.66 0.33 1.32 0.66 2 1 C-3.76694692 4.99428807 -7.54885433 5.44941124 -14.4375 4.75 C-15.67790039 4.65138672 -15.67790039 4.65138672 -16.94335938 4.55078125 C-18.96396475 4.38726405 -20.98232821 4.19642942 -23 4 C-23 3.67 -23 3.34 -23 3 C-21.84242188 2.95101562 -20.68484375 2.90203125 -19.4921875 2.8515625 C-17.9531033 2.77648522 -16.4140419 2.70093957 -14.875 2.625 C-13.73417969 2.57859375 -13.73417969 2.57859375 -12.5703125 2.53125 C-8.01973045 2.29587507 -4.33176258 1.51414193 0 0 Z " fill="#4C7AC6" transform="translate(692,142)"/>
<path d="M0 0 C-0.33 0.70125 -0.66 1.4025 -1 2.125 C-2.54206567 6.55843879 -2.37326684 10.53688278 -1 15 C-4.10366328 12.57526306 -4.9393296 11.48536323 -5.4375 7.5 C-4.97860522 3.82884175 -4.32728745 0 0 0 Z " fill="#2558B7" transform="translate(575,95)"/>
<path d="M0 0 C0.66 0.33 1.32 0.66 2 1 C0.63629701 3.99220268 -0.94908083 6.29026529 -3.125 8.75 C-3.93324219 9.67039062 -3.93324219 9.67039062 -4.7578125 10.609375 C-5.16773438 11.06828125 -5.57765625 11.5271875 -6 12 C-6.33 11.34 -6.66 10.68 -7 10 C-5.29152862 5.86370087 -3.32643967 2.98232523 0 0 Z " fill="#295EB9" transform="translate(212,71)"/>
<path d="M0 0 C-1.14332406 2.80634087 -2.26329641 4.25013159 -4.5 6.375 C-7.1885165 9.19794233 -8.04497296 11.26671249 -9 15 C-9.75 13.4375 -9.75 13.4375 -10 11 C-4.69642857 0 -4.69642857 0 0 0 Z " fill="#CEDCEF" transform="translate(568,63)"/>
<path d="M0 0 C6.46326465 -0.45356243 9.60931587 0.40621058 15 4 C15 4.99 15 5.98 15 7 C14.67 6.34 14.34 5.68 14 5 C12.11235097 4.31527335 12.11235097 4.31527335 9.9375 3.875 C9.20402344 3.70742187 8.47054688 3.53984375 7.71484375 3.3671875 C7.14894531 3.24601562 6.58304687 3.12484375 6 3 C6 2.34 6 1.68 6 1 C4.02 1 2.04 1 0 1 C0 0.67 0 0.34 0 0 Z " fill="#3467BD" transform="translate(455,69)"/>
<path d="M0 0 C0.66 0.33 1.32 0.66 2 1 C0.4722133 4.43752007 -1.50181056 7.18953688 -4 10 C-4.66 10 -5.32 10 -6 10 C-4.79157144 5.56909529 -3.48331435 3.01887244 0 0 Z " fill="#2A5EBA" transform="translate(19,14)"/>
<path d="M0 0 C0.33 0 0.66 0 1 0 C1.06058594 0.78246094 1.12117188 1.56492187 1.18359375 2.37109375 C1.26738281 3.38300781 1.35117187 4.39492187 1.4375 5.4375 C1.51871094 6.44683594 1.59992188 7.45617187 1.68359375 8.49609375 C1.73211468 10.93640779 1.73211468 10.93640779 3 12 C3.14115161 14.67058851 3.04247107 17.32432238 3 20 C-0.11227851 15.33158223 -0.11824029 11.82402862 -0.0625 6.25 C-0.05347656 5.07953125 -0.04445313 3.9090625 -0.03515625 2.703125 C-0.02355469 1.81109375 -0.01195312 0.9190625 0 0 Z " fill="#396DBF" transform="translate(444,83)"/>
<path d="M0 0 C0.66 0.33 1.32 0.66 2 1 C1.690625 1.5775 1.38125 2.155 1.0625 2.75 C0.07416636 4.84294184 -0.5168613 6.74535275 -1 9 C-0.34 9.33 0.32 9.66 1 10 C0.01 10 -0.98 10 -2 10 C-2.33 9.67 -2.66 9.34 -3 9 C-2.4 2.4 -2.4 2.4 0 0 Z " fill="#2256B6" transform="translate(514,70)"/>
<path d="M0 0 C0.66 0.33 1.32 0.66 2 1 C-1.3 4.3 -4.6 7.6 -8 11 C-8 6.67750434 -5.85084926 5.11604454 -3 2 C-2.01 1.34 -1.02 0.68 0 0 Z " fill="#CAD9EE" transform="translate(728,63)"/>
<path d="M0 0 C-1.55603771 3.81936528 -3.95604931 6.26044438 -7 9 C-7.66 9 -8.32 9 -9 9 C-7.45665977 5.21180126 -4.44676575 0 0 0 Z " fill="#D6E2F2" transform="translate(444,64)"/>
<path d="M0 0 C2.125 0.375 2.125 0.375 4 1 C3.0479279 2.00596297 2.08812654 3.00461563 1.125 4 C0.59132813 4.556875 0.05765625 5.11375 -0.4921875 5.6875 C-2 7 -2 7 -4 7 C-2.92598892 4.08482708 -2.22189824 2.22189824 0 0 Z " fill="#1E5AB8" transform="translate(66,62)"/>
<path d="M0 0 C0.66 0.33 1.32 0.66 2 1 C-0.64 3.64 -3.28 6.28 -6 9 C-6.66 8.67 -7.32 8.34 -8 8 C-3.375 2.25 -3.375 2.25 0 0 Z " fill="#CCDAEF" transform="translate(661,61)"/>
<path d="M0 0 C1.32 1.32 2.64 2.64 4 4 C2.61410019 7.09162264 1.50816459 8.49183541 -1 11 C-0.67 7.37 -0.34 3.74 0 0 Z " fill="#0D45AE" transform="translate(272,60)"/>
<path d="M0 0 C3.3 0 6.6 0 10 0 C10 0.66 10 1.32 10 2 C6.52674819 3.1577506 3.63932552 3.06866652 0 3 C0 2.01 0 1.02 0 0 Z " fill="#1652B6" transform="translate(63,96)"/>
<path d="M0 0 C0.66 0.33 1.32 0.66 2 1 C1.34 2.32 0.68 3.64 0 5 C-0.66 5 -1.32 5 -2 5 C-2 5.66 -2 6.32 -2 7 C-2.99 7.33 -3.98 7.66 -5 8 C-3.8141763 4.62496331 -2.72426311 2.35277269 0 0 Z " fill="#2C5FBA" transform="translate(278,74)"/>
<path d="M0 0 C0.66 0.33 1.32 0.66 2 1 C-0.64 3.64 -3.28 6.28 -6 9 C-6.33 8.34 -6.66 7.68 -7 7 C-4.78071806 4.09197539 -3.07030857 2.04687238 0 0 Z " fill="#C9D7EE" transform="translate(507,62)"/>
<path d="M0 0 C0.66 0.33 1.32 0.66 2 1 C0.88121617 2.17262904 -0.24523051 3.33795138 -1.375 4.5 C-2.00148437 5.1496875 -2.62796875 5.799375 -3.2734375 6.46875 C-5 8 -5 8 -7 8 C-5.50902342 4.2047869 -3.24299151 2.38957269 0 0 Z " fill="#CAD8ED" transform="translate(213,61)"/>
<path d="M0 0 C0.66 0.33 1.32 0.66 2 1 C-0.64 3.64 -3.28 6.28 -6 9 C-6.33 8.34 -6.66 7.68 -7 7 C-4.66666667 4.66666667 -2.33333333 2.33333333 0 0 Z " fill="#C0D1EB" transform="translate(565,88)"/>
<path d="M0 0 C0.66 0 1.32 0 2 0 C0.55746343 3.36591866 -1.33264727 5.51047079 -4 8 C-4.66 7.67 -5.32 7.34 -6 7 C-5.04882866 5.8274869 -4.08882991 4.66212985 -3.125 3.5 C-2.59132813 2.8503125 -2.05765625 2.200625 -1.5078125 1.53125 C-0.76144531 0.77328125 -0.76144531 0.77328125 0 0 Z " fill="#D4E0F1" transform="translate(800,63)"/>
<path d="M0 0 C-0.66 0 -1.32 0 -2 0 C-2 0.66 -2 1.32 -2 2 C-6.29 1.67 -10.58 1.34 -15 1 C-15 0.67 -15 0.34 -15 0 C-13.25093341 -0.19601608 -11.50068154 -0.38147403 -9.75 -0.5625 C-8.77546875 -0.66691406 -7.8009375 -0.77132812 -6.796875 -0.87890625 C-4.2368648 -0.98974468 -2.41851841 -0.77738092 0 0 Z " fill="#3F66BC" transform="translate(751,123)"/>
<path d="M0 0 C-1.28519565 2.86697492 -2.57129254 4.97607712 -5 7 C-5.66 7 -6.32 7 -7 7 C-3.86206897 0 -3.86206897 0 0 0 Z " fill="#D4E0F0" transform="translate(280,63)"/>
<path d="M0 0 C-1.28519565 2.86697492 -2.57129254 4.97607712 -5 7 C-5.66 7 -6.32 7 -7 7 C-3.86206897 0 -3.86206897 0 0 0 Z " fill="#D0DDF0" transform="translate(12,4)"/>
<path d="M0 0 C0.66 0 1.32 0 2 0 C2.66 1.98 3.32 3.96 4 6 C1.03 5.505 1.03 5.505 -2 5 C-1.34 4.67 -0.68 4.34 0 4 C0 2.68 0 1.36 0 0 Z " fill="#235AB7" transform="translate(59,128)"/>
<path d="M0 0 C0.66 0.33 1.32 0.66 2 1 C1.25 2.9375 1.25 2.9375 0 5 C-2.125 5.75 -2.125 5.75 -4 6 C-1.125 1.125 -1.125 1.125 0 0 Z " fill="#265BB9" transform="translate(451,71)"/>
<path d="M0 0 C0.66 0.33 1.32 0.66 2 1 C-0.31 3.31 -2.62 5.62 -5 8 C-5.66 7.67 -6.32 7.34 -7 7 C-4.66666667 4.66666667 -2.33333333 2.33333333 0 0 Z " fill="#C9D7EE" transform="translate(308,63)"/>
<path d="M0 0 C0.66 0.33 1.32 0.66 2 1 C1.67 1.99 1.34 2.98 1 4 C-1.64 4 -4.28 4 -7 4 C-4 2 -4 2 0 2 C0 1.34 0 0.68 0 0 Z " fill="#4479C5" transform="translate(55,90)"/>
</svg>
