<svg width="20" height="21" viewBox="0 0 20 21" fill="none" xmlns="http://www.w3.org/2000/svg">
<g clip-path="url(#clip0_106_4551)">
<path d="M4.66667 11.1668H4V9.8335H4.66667C5.03485 9.8335 5.33333 10.132 5.33333 10.5002C5.33333 10.8683 5.03485 11.1668 4.66667 11.1668Z" fill="white"/>
<path d="M9.3335 13.8335V9.8335H10.0002C10.3683 9.8335 10.6668 10.132 10.6668 10.5002V13.1668C10.6668 13.535 10.3683 13.8335 10.0002 13.8335H9.3335Z" fill="white"/>
<path fill-rule="evenodd" clip-rule="evenodd" d="M1.3335 2.5C1.3335 1.39543 2.22892 0.5 3.3335 0.5H14.2763L18.6668 4.89052V18.5C18.6668 19.6045 17.7714 20.5 16.6668 20.5H3.3335C2.22892 20.5 1.3335 19.6045 1.3335 18.5V2.5ZM4.66683 8.5H2.66683V15.1667H4.00016V12.5H4.66683C5.7714 12.5 6.66683 11.6046 6.66683 10.5C6.66683 9.39543 5.7714 8.5 4.66683 8.5ZM10.0002 8.5H8.00016V15.1667H10.0002C11.1047 15.1667 12.0002 14.2712 12.0002 13.1667V10.5C12.0002 9.39543 11.1047 8.5 10.0002 8.5ZM13.3335 15.1667V8.5H17.3335V9.83333H14.6668V11.1667H16.0002V12.5H14.6668V15.1667H13.3335Z" fill="white"/>
</g>
<defs>
<clipPath id="clip0_106_4551">
<rect width="20" height="20" fill="white" transform="translate(0 0.5)"/>
</clipPath>
</defs>
</svg>
