<?xml version="1.0" encoding="UTF-8" standalone="no"?>
<svg
   version="1.1"
   width="800"
   height="800"
   viewBox="0 0 800 800"
   xml:space="preserve"
   id="svg2"
   sodipodi:docname="prop.svg"
   inkscape:version="1.4.2 (ebf0e940d0, 2025-05-08)"
   xmlns:inkscape="http://www.inkscape.org/namespaces/inkscape"
   xmlns:sodipodi="http://sodipodi.sourceforge.net/DTD/sodipodi-0.dtd"
   xmlns="http://www.w3.org/2000/svg"
   xmlns:svg="http://www.w3.org/2000/svg"><defs
   id="defs2" /><sodipodi:namedview
   id="namedview2"
   pagecolor="#ffffff"
   bordercolor="#000000"
   borderopacity="0.25"
   inkscape:showpageshadow="2"
   inkscape:pageopacity="0.0"
   inkscape:pagecheckerboard="0"
   inkscape:deskcolor="#d1d1d1"
   inkscape:zoom="0.8203125"
   inkscape:cx="212.11429"
   inkscape:cy="374.24762"
   inkscape:window-width="1912"
   inkscape:window-height="1011"
   inkscape:window-x="4"
   inkscape:window-y="28"
   inkscape:window-maximized="0"
   inkscape:current-layer="svg2" />
<g
   style="opacity:1;fill:#000000;fill-rule:nonzero;stroke:none;stroke-width:0;stroke-linecap:butt;stroke-linejoin:miter;stroke-miterlimit:10;stroke-dasharray:none"
   transform="matrix(7.5235984,0,0,10.480954,51.387548,-74.988872)"
   id="g2">
	<path
   d="m 69.131,75.433 c -0.623,0 -1.252,-0.121 -1.854,-0.37 -1.813,-0.75 -2.984,-2.503 -2.984,-4.464 V 67.11 H 34.779 c -1.657,0 -3,-1.343 -3,-3 0,-1.657 1.343,-3 3,-3 h 30.684 c 2.664,0 4.831,2.168 4.831,4.832 v 1.837 L 83.518,54.555 70.294,41.332 v 1.837 c 0,2.664 -2.167,4.832 -4.831,4.832 H 47.124 c -1.657,0 -3,-1.343 -3,-3 0,-1.657 1.343,-3 3,-3 h 17.17 v -3.489 c 0,-1.962 1.171,-3.714 2.984,-4.465 1.814,-0.75 3.879,-0.339 5.266,1.049 L 88.588,51.14 c 1.884,1.884 1.884,4.948 0,6.832 L 72.542,74.016 c -0.925,0.927 -2.156,1.417 -3.411,1.417 z"
   style="opacity:1;fill:#000000;fill-rule:nonzero;stroke:none;stroke-width:1;stroke-linecap:butt;stroke-linejoin:miter;stroke-miterlimit:10;stroke-dasharray:none"
   stroke-linecap="round"
   id="path1" />
	<path
   d="m 20.869,56.323 c -1.255,0 -2.484,-0.49 -3.411,-1.416 L 1.413,38.862 c -1.884,-1.884 -1.884,-4.949 0,-6.833 L 17.457,15.985 c 1.386,-1.386 3.454,-1.798 5.265,-1.047 1.813,0.75 2.984,2.503 2.984,4.464 v 3.489 h 29.515 c 1.657,0 3,1.343 3,3 0,1.657 -1.343,3 -3,3 H 24.538 c -2.664,0 -4.832,-2.168 -4.832,-4.832 V 22.222 L 6.482,35.445 19.706,48.669 V 46.832 C 19.706,44.167 21.874,42 24.538,42 h 22.587 c 1.657,0 3,1.343 3,3 0,1.657 -1.343,3 -3,3 H 25.706 v 3.488 c 0,1.961 -1.171,3.713 -2.983,4.464 -0.601,0.25 -1.231,0.371 -1.854,0.371 z"
   style="opacity:1;fill:#000000;fill-rule:nonzero;stroke:none;stroke-width:1;stroke-linecap:butt;stroke-linejoin:miter;stroke-miterlimit:10;stroke-dasharray:none"
   stroke-linecap="round"
   id="path2" />
</g>
</svg>
