<svg width="20" height="21" viewBox="0 0 20 21" fill="none" xmlns="http://www.w3.org/2000/svg">
<path d="M9.9999 0.899902C9.89225 0.900555 9.78493 0.912072 9.67959 0.934277L9.67803 0.932715L1.72803 2.52334L1.70303 2.52803L1.70147 2.52959C1.33571 2.59903 1.00562 2.79384 0.768039 3.08048C0.530463 3.36711 0.400277 3.72761 0.399902 4.0999V16.8999C0.399982 17.2727 0.530225 17.6337 0.768143 17.9207C1.00606 18.2077 1.33672 18.4026 1.70303 18.4718L9.67178 20.0655L9.67803 20.0671C9.78394 20.0889 9.89178 20.0999 9.9999 20.0999C10.4243 20.0999 10.8312 19.9313 11.1313 19.6313C11.4313 19.3312 11.5999 18.9243 11.5999 18.4999V2.4999C11.5999 2.07556 11.4313 1.66859 11.1313 1.36853C10.8312 1.06847 10.4243 0.899902 9.9999 0.899902ZM13.1999 2.4999V4.8999H16.3999C16.8415 4.8999 17.1999 5.2583 17.1999 5.6999C17.1999 6.1415 16.8415 6.4999 16.3999 6.4999H13.1999V8.0999H16.3999C16.8415 8.0999 17.1999 8.4583 17.1999 8.8999C17.1999 9.3415 16.8415 9.6999 16.3999 9.6999H13.1999V11.2999H16.3999C16.8415 11.2999 17.1999 11.6583 17.1999 12.0999C17.1999 12.5415 16.8415 12.8999 16.3999 12.8999H13.1999V14.4999H16.3999C16.8415 14.4999 17.1999 14.8583 17.1999 15.2999C17.1999 15.7415 16.8415 16.0999 16.3999 16.0999H13.1999V18.4999H17.9999C18.8839 18.4999 19.5999 17.7839 19.5999 16.8999V4.0999C19.5999 3.2159 18.8839 2.4999 17.9999 2.4999H13.1999ZM2.21084 6.4999H3.69834L4.4499 11.8062H4.52022L5.42178 6.4999H6.57022L7.50459 11.8062H7.5749L8.3124 6.4999H9.78897L8.31709 14.4999H6.97334L6.03115 9.59834H5.96084L5.03584 14.4999H3.68272L2.21084 6.4999Z" fill="white"/>
</svg>
