<svg width="389" height="97" viewBox="0 0 389 97" fill="none" xmlns="http://www.w3.org/2000/svg">
<path d="M13.7231 26H6.97266V6.53467H0.871582V1.01465H19.8071V6.53467H13.7231V26ZM44.7925 26H38.0078V15.8145H30.1636V26H23.3789V1.01465H30.1636V10.2773H38.0078V1.01465H44.7925V26ZM65.0439 26H50.21V1.01465H65.0439V6.43213H56.9604V10.3628H64.4458V15.7803H56.9604V20.4971H65.0439V26ZM19.0381 53.4121C19.0381 54.7679 18.6963 56.0553 18.0127 57.2744C17.3291 58.4821 16.2638 59.4619 14.8169 60.2139C13.3813 60.9658 11.5243 61.3418 9.24561 61.3418C8.10628 61.3418 7.10368 61.2905 6.23779 61.188C5.3833 61.0854 4.58577 60.9202 3.84521 60.6924C3.10465 60.4531 2.33561 60.1455 1.53809 59.7695V53.7539C2.89388 54.4375 4.26107 54.9616 5.63965 55.3262C7.01823 55.6794 8.26579 55.856 9.38232 55.856C10.0545 55.856 10.6014 55.7762 11.0229 55.6167C11.4559 55.4572 11.7749 55.2407 11.98 54.9673C12.1851 54.6825 12.2876 54.3577 12.2876 53.9932C12.2876 53.5602 12.1338 53.1956 11.8262 52.8994C11.5299 52.5918 11.0514 52.2728 10.3906 51.9424C9.72982 51.612 8.85824 51.2018 7.77588 50.7119C6.85303 50.279 6.01562 49.8346 5.26367 49.3789C4.52311 48.9232 3.88509 48.4048 3.34961 47.8237C2.82552 47.2313 2.42106 46.542 2.13623 45.7559C1.8514 44.9697 1.70898 44.0412 1.70898 42.9702C1.70898 41.3638 2.10205 40.0194 2.88818 38.937C3.68571 37.8433 4.79085 37.0229 6.20361 36.4761C7.62777 35.9292 9.26839 35.6558 11.1255 35.6558C12.7547 35.6558 14.2188 35.8381 15.5176 36.2026C16.8278 36.5672 18.0013 36.9831 19.0381 37.4502L16.9702 42.6626C15.8993 42.1727 14.8454 41.7853 13.8086 41.5005C12.7718 41.2043 11.8091 41.0562 10.9204 41.0562C10.3394 41.0562 9.86084 41.1302 9.48486 41.2783C9.12028 41.415 8.84684 41.603 8.66455 41.8423C8.49365 42.0815 8.4082 42.355 8.4082 42.6626C8.4082 43.05 8.55632 43.3975 8.85254 43.7051C9.16016 44.0127 9.66715 44.3488 10.3735 44.7134C11.0913 45.0666 12.0654 45.528 13.2959 46.0977C14.515 46.6445 15.5518 47.237 16.4062 47.875C17.2607 48.5016 17.9102 49.2593 18.3545 50.1479C18.8102 51.0252 19.0381 52.1133 19.0381 53.4121ZM33.9233 61H27.1729V41.5347H21.0718V36.0146H40.0073V41.5347H33.9233V61ZM58.9087 61L57.6782 56.3174H49.5605L48.2959 61H40.8789L49.0308 35.9121H58.0371L66.2915 61H58.9087ZM56.2769 50.7803L55.2002 46.6787C55.0863 46.2344 54.9211 45.6021 54.7046 44.7817C54.4881 43.95 54.2716 43.0955 54.0552 42.2183C53.8501 41.3296 53.6906 40.6004 53.5767 40.0308C53.4741 40.6004 53.326 41.3068 53.1323 42.1499C52.95 42.9816 52.7563 43.8076 52.5513 44.6279C52.3576 45.4482 52.1867 46.1318 52.0386 46.6787L50.9619 50.7803H56.2769ZM77.1948 36.0146C79.4621 36.0146 81.3477 36.2938 82.8516 36.8521C84.3555 37.3989 85.4834 38.2192 86.2354 39.313C86.9987 40.4067 87.3804 41.7682 87.3804 43.3975C87.3804 44.4115 87.2095 45.3343 86.8677 46.166C86.5259 46.9977 86.036 47.744 85.3979 48.4048C84.7713 49.0542 84.0194 49.6239 83.1421 50.1138L90.4224 61H82.7661L77.4683 51.9082H75.7593V61H69.0088V36.0146H77.1948ZM77.0923 41.1245H75.7593V46.8325H77.0239C78.0607 46.8325 78.9095 46.6047 79.5703 46.1489C80.2311 45.6932 80.5615 44.8786 80.5615 43.7051C80.5615 42.8962 80.2881 42.2638 79.7412 41.8081C79.1943 41.3524 78.3114 41.1245 77.0923 41.1245ZM103.718 61H96.9678V41.5347H90.8667V36.0146H109.802V41.5347H103.718V61ZM129.712 53.4121C129.712 54.7679 129.37 56.0553 128.687 57.2744C128.003 58.4821 126.938 59.4619 125.491 60.2139C124.055 60.9658 122.198 61.3418 119.919 61.3418C118.78 61.3418 117.778 61.2905 116.912 61.188C116.057 61.0854 115.26 60.9202 114.519 60.6924C113.778 60.4531 113.009 60.1455 112.212 59.7695V53.7539C113.568 54.4375 114.935 54.9616 116.313 55.3262C117.692 55.6794 118.94 55.856 120.056 55.856C120.728 55.856 121.275 55.7762 121.697 55.6167C122.13 55.4572 122.449 55.2407 122.654 54.9673C122.859 54.6825 122.961 54.3577 122.961 53.9932C122.961 53.5602 122.808 53.1956 122.5 52.8994C122.204 52.5918 121.725 52.2728 121.064 51.9424C120.404 51.612 119.532 51.2018 118.45 50.7119C117.527 50.279 116.689 49.8346 115.938 49.3789C115.197 48.9232 114.559 48.4048 114.023 47.8237C113.499 47.2313 113.095 46.542 112.81 45.7559C112.525 44.9697 112.383 44.0412 112.383 42.9702C112.383 41.3638 112.776 40.0194 113.562 38.937C114.36 37.8433 115.465 37.0229 116.877 36.4761C118.302 35.9292 119.942 35.6558 121.799 35.6558C123.429 35.6558 124.893 35.8381 126.191 36.2026C127.502 36.5672 128.675 36.9831 129.712 37.4502L127.644 42.6626C126.573 42.1727 125.519 41.7853 124.482 41.5005C123.446 41.2043 122.483 41.0562 121.594 41.0562C121.013 41.0562 120.535 41.1302 120.159 41.2783C119.794 41.415 119.521 41.603 119.338 41.8423C119.167 42.0815 119.082 42.355 119.082 42.6626C119.082 43.05 119.23 43.3975 119.526 43.7051C119.834 44.0127 120.341 44.3488 121.047 44.7134C121.765 45.0666 122.739 45.528 123.97 46.0977C125.189 46.6445 126.226 47.237 127.08 47.875C127.935 48.5016 128.584 49.2593 129.028 50.1479C129.484 51.0252 129.712 52.1133 129.712 53.4121ZM175.803 36.0146L169.651 61H161.67L159.277 50.1138C159.232 49.9087 159.158 49.5612 159.055 49.0713C158.964 48.5814 158.856 48.0231 158.73 47.3965C158.617 46.7699 158.508 46.1546 158.406 45.5508C158.315 44.9355 158.246 44.4172 158.201 43.9956C158.155 44.4172 158.081 44.9355 157.979 45.5508C157.876 46.1546 157.762 46.7699 157.637 47.3965C157.523 48.0231 157.409 48.5814 157.295 49.0713C157.192 49.5612 157.118 49.9087 157.073 50.1138L154.663 61H146.682L140.496 36.0146H147.007L149.724 48.5415C149.792 48.8491 149.884 49.2878 149.998 49.8574C150.123 50.4157 150.248 51.0309 150.374 51.7031C150.51 52.3639 150.636 53.002 150.75 53.6172C150.863 54.2324 150.943 54.7451 150.989 55.1553C151.08 54.4489 151.2 53.6457 151.348 52.7456C151.507 51.8455 151.678 50.9341 151.86 50.0112C152.054 49.077 152.236 48.2111 152.407 47.4136C152.578 46.616 152.726 45.9666 152.852 45.4653L155.056 36.0146H161.311L163.447 45.4653C163.561 45.9552 163.704 46.6047 163.875 47.4136C164.057 48.2111 164.239 49.077 164.421 50.0112C164.615 50.9455 164.792 51.8683 164.951 52.7798C165.111 53.6799 165.23 54.4717 165.31 55.1553C165.378 54.5856 165.492 53.8678 165.652 53.002C165.811 52.1247 165.971 51.2759 166.13 50.4556C166.301 49.6239 166.432 48.9972 166.523 48.5757L169.292 36.0146H175.803ZM179.033 61V36.0146H185.818V61H179.033ZM202.258 61H195.508V41.5347H189.407V36.0146H208.342V41.5347H202.258V61ZM233.328 61H226.543V50.8145H218.699V61H211.914V36.0146H218.699V45.2773H226.543V36.0146H233.328V61ZM258.86 61H252.109V41.5347H246.008V36.0146H264.944V41.5347H258.86V61ZM289.929 61H283.145V50.8145H275.3V61H268.516V36.0146H275.3V45.2773H283.145V36.0146H289.929V61ZM310.181 61H295.347V36.0146H310.181V41.4321H302.097V45.3628H309.583V50.7803H302.097V55.4971H310.181V61Z" fill="white"/>
<path d="M86.6968 1.01465C88.964 1.01465 90.8496 1.29378 92.3535 1.85205C93.8574 2.39893 94.9854 3.21924 95.7373 4.31299C96.5007 5.40674 96.8823 6.76823 96.8823 8.39746C96.8823 9.41146 96.7114 10.3343 96.3696 11.166C96.0278 11.9977 95.5379 12.744 94.8999 13.4048C94.2733 14.0542 93.5213 14.6239 92.644 15.1138L99.9243 26H92.2681L86.9702 16.9082H85.2612V26H78.5107V1.01465H86.6968ZM86.5942 6.12451H85.2612V11.8325H86.5259C87.5627 11.8325 88.4115 11.6047 89.0723 11.1489C89.7331 10.6932 90.0635 9.87858 90.0635 8.70508C90.0635 7.89616 89.79 7.26383 89.2432 6.80811C88.6963 6.35238 87.8133 6.12451 86.5942 6.12451ZM102.197 26V1.01465H108.982V26H102.197ZM124.431 11.3711H135.215V24.8379C133.927 25.2822 132.452 25.6468 130.789 25.9316C129.125 26.2051 127.382 26.3418 125.559 26.3418C123.155 26.3418 121.047 25.8747 119.236 24.9404C117.424 24.0062 116.012 22.5877 114.998 20.6851C113.984 18.771 113.477 16.3556 113.477 13.439C113.477 10.8185 113.978 8.55697 114.98 6.6543C115.983 4.74023 117.458 3.26481 119.407 2.22803C121.366 1.17985 123.765 0.655762 126.602 0.655762C128.162 0.655762 129.644 0.803874 131.045 1.1001C132.446 1.39632 133.665 1.7723 134.702 2.22803L132.566 7.52588C131.666 7.08154 130.732 6.75114 129.763 6.53467C128.795 6.3068 127.752 6.19287 126.636 6.19287C125.143 6.19287 123.941 6.52897 123.03 7.20117C122.13 7.87337 121.475 8.77344 121.064 9.90137C120.654 11.0179 120.449 12.2541 120.449 13.6099C120.449 15.1593 120.666 16.4696 121.099 17.5405C121.543 18.6001 122.187 19.409 123.03 19.9673C123.884 20.5142 124.915 20.7876 126.123 20.7876C126.522 20.7876 127.006 20.7591 127.576 20.7021C128.157 20.6452 128.595 20.5768 128.892 20.4971V16.5835H124.431V11.3711ZM161.721 26H154.937V15.8145H147.092V26H140.308V1.01465H147.092V10.2773H154.937V1.01465H161.721V26ZM178.162 26H171.411V6.53467H165.31V1.01465H184.246V6.53467H178.162V26ZM205.557 1.01465C208.724 1.01465 211.094 1.70394 212.666 3.08252C214.25 4.4611 215.042 6.42074 215.042 8.96143C215.042 10.1007 214.876 11.1945 214.546 12.2427C214.227 13.2909 213.697 14.2251 212.957 15.0454C212.227 15.8657 211.253 16.5151 210.034 16.9937C208.826 17.4722 207.334 17.7114 205.557 17.7114H203.66V26H196.909V1.01465H205.557ZM205.403 6.46631H203.66V12.2085H204.993C205.574 12.2085 206.115 12.1117 206.616 11.918C207.118 11.7129 207.516 11.3882 207.812 10.9438C208.12 10.4881 208.274 9.88428 208.274 9.13232C208.274 8.34619 208.04 7.70817 207.573 7.21826C207.106 6.71696 206.383 6.46631 205.403 6.46631ZM234.353 26L233.123 21.3174H225.005L223.74 26H216.323L224.475 0.912109H233.481L241.736 26H234.353ZM231.721 15.7803L230.645 11.6787C230.531 11.2344 230.365 10.6021 230.149 9.78174C229.932 8.95003 229.716 8.09554 229.5 7.21826C229.294 6.32959 229.135 5.60042 229.021 5.03076C228.918 5.60042 228.77 6.3068 228.577 7.1499C228.394 7.98161 228.201 8.80762 227.996 9.62793C227.802 10.4482 227.631 11.1318 227.483 11.6787L226.406 15.7803H231.721ZM255.476 26H248.726V6.53467H242.625V1.01465H261.56V6.53467H255.476V26ZM286.545 26H279.761V15.8145H271.917V26H265.132V1.01465H271.917V10.2773H279.761V1.01465H286.545V26ZM10.8862 71.0146C13.1535 71.0146 15.0391 71.2938 16.543 71.8521C18.0469 72.3989 19.1748 73.2192 19.9268 74.313C20.6901 75.4067 21.0718 76.7682 21.0718 78.3975C21.0718 79.4115 20.9009 80.3343 20.5591 81.166C20.2173 81.9977 19.7274 82.744 19.0894 83.4048C18.4627 84.0542 17.7108 84.6239 16.8335 85.1138L24.1138 96H16.4575L11.1597 86.9082H9.45068V96H2.7002V71.0146H10.8862ZM10.7837 76.1245H9.45068V81.8325H10.7153C11.7521 81.8325 12.6009 81.6047 13.2617 81.1489C13.9225 80.6932 14.2529 79.8786 14.2529 78.7051C14.2529 77.8962 13.9795 77.2638 13.4326 76.8081C12.8857 76.3524 12.0028 76.1245 10.7837 76.1245ZM26.3867 96V71.0146H33.1714V96H26.3867ZM48.6206 81.3711H59.4043V94.8379C58.1169 95.2822 56.6414 95.6468 54.978 95.9316C53.3146 96.2051 51.5715 96.3418 49.7485 96.3418C47.3446 96.3418 45.2368 95.8747 43.4253 94.9404C41.6138 94.0062 40.201 92.5877 39.187 90.6851C38.173 88.771 37.666 86.3556 37.666 83.439C37.666 80.8185 38.1673 78.557 39.1699 76.6543C40.1725 74.7402 41.6479 73.2648 43.5962 72.228C45.5558 71.1799 47.9541 70.6558 50.791 70.6558C52.3519 70.6558 53.833 70.8039 55.2344 71.1001C56.6357 71.3963 57.8548 71.7723 58.8916 72.228L56.7554 77.5259C55.8553 77.0815 54.9211 76.7511 53.9526 76.5347C52.9842 76.3068 51.9417 76.1929 50.8252 76.1929C49.3327 76.1929 48.1307 76.529 47.2192 77.2012C46.3192 77.8734 45.6641 78.7734 45.2539 79.9014C44.8438 81.0179 44.6387 82.2541 44.6387 83.6099C44.6387 85.1593 44.8551 86.4696 45.2881 87.5405C45.7324 88.6001 46.3761 89.409 47.2192 89.9673C48.0737 90.5142 49.1048 90.7876 50.3125 90.7876C50.7113 90.7876 51.1955 90.7591 51.7651 90.7021C52.3462 90.6452 52.7848 90.5768 53.0811 90.4971V86.5835H48.6206V81.3711ZM85.9106 96H79.126V85.8145H71.2817V96H64.4971V71.0146H71.2817V80.2773H79.126V71.0146H85.9106V96ZM102.351 96H95.6006V76.5347H89.4995V71.0146H108.435V76.5347H102.351V96ZM121.099 96V71.0146H127.883V96H121.099ZM157.09 96H148.237L139.111 78.3975H138.958C139.014 78.9329 139.066 79.5767 139.111 80.3286C139.157 81.0806 139.197 81.8496 139.231 82.6357C139.265 83.4105 139.282 84.1112 139.282 84.7378V96H133.301V71.0146H142.119L151.211 88.3779H151.313C151.279 87.8311 151.245 87.1987 151.211 86.481C151.177 85.7518 151.143 85.0169 151.108 84.2764C151.086 83.5358 151.074 82.8807 151.074 82.311V71.0146H157.09V96ZM169.138 96H162.49V71.0146H177.256V76.4321H169.138V81.2002H176.624V86.6177H169.138V96ZM204.736 83.4731C204.736 85.3986 204.503 87.1532 204.036 88.7368C203.58 90.3091 202.862 91.6649 201.882 92.8042C200.903 93.9435 199.644 94.8208 198.105 95.436C196.567 96.0399 194.727 96.3418 192.585 96.3418C190.489 96.3418 188.672 96.0399 187.134 95.436C185.607 94.8208 184.348 93.9492 183.357 92.8213C182.366 91.682 181.631 90.3205 181.152 88.7368C180.674 87.1532 180.435 85.3872 180.435 83.439C180.435 80.8413 180.862 78.5854 181.716 76.6714C182.582 74.7459 183.915 73.2591 185.715 72.2109C187.515 71.1514 189.817 70.6216 192.62 70.6216C195.468 70.6216 197.781 71.1514 199.558 72.2109C201.347 73.2705 202.657 74.763 203.489 76.6885C204.32 78.6139 204.736 80.8755 204.736 83.4731ZM187.544 83.4731C187.544 84.9771 187.715 86.2702 188.057 87.3525C188.398 88.4349 188.94 89.2666 189.68 89.8477C190.421 90.4287 191.389 90.7192 192.585 90.7192C193.827 90.7192 194.813 90.4287 195.542 89.8477C196.283 89.2666 196.812 88.4349 197.131 87.3525C197.462 86.2702 197.627 84.9771 197.627 83.4731C197.627 81.2173 197.251 79.4342 196.499 78.124C195.747 76.8138 194.454 76.1587 192.62 76.1587C191.401 76.1587 190.415 76.4549 189.663 77.0474C188.923 77.6398 188.381 78.4829 188.04 79.5767C187.709 80.6704 187.544 81.9692 187.544 83.4731ZM217.434 71.0146C219.701 71.0146 221.587 71.2938 223.091 71.8521C224.595 72.3989 225.723 73.2192 226.475 74.313C227.238 75.4067 227.62 76.7682 227.62 78.3975C227.62 79.4115 227.449 80.3343 227.107 81.166C226.765 81.9977 226.275 82.744 225.637 83.4048C225.011 84.0542 224.259 84.6239 223.381 85.1138L230.662 96H223.005L217.708 86.9082H215.999V96H209.248V71.0146H217.434ZM217.332 76.1245H215.999V81.8325H217.263C218.3 81.8325 219.149 81.6047 219.81 81.1489C220.47 80.6932 220.801 79.8786 220.801 78.7051C220.801 77.8962 220.527 77.2638 219.98 76.8081C219.434 76.3524 218.551 76.1245 217.332 76.1245ZM243.821 96L238.711 78.0044H238.557C238.603 78.4715 238.648 79.1038 238.694 79.9014C238.751 80.6989 238.802 81.5591 238.848 82.4819C238.893 83.4048 238.916 84.2935 238.916 85.1479V96H232.935V71.0146H241.924L247.136 88.7539H247.273L252.383 71.0146H261.389V96H255.186V85.0454C255.186 84.2593 255.197 83.4162 255.22 82.5161C255.254 81.6047 255.288 80.7502 255.322 79.9526C255.368 79.1437 255.408 78.5057 255.442 78.0386H255.288L250.247 96H243.821ZM282.102 96L280.872 91.3174H272.754L271.489 96H264.072L272.224 70.9121H281.23L289.485 96H282.102ZM279.47 85.7803L278.394 81.6787C278.28 81.2344 278.114 80.6021 277.898 79.7817C277.681 78.95 277.465 78.0955 277.249 77.2183C277.043 76.3296 276.884 75.6004 276.77 75.0308C276.667 75.6004 276.519 76.3068 276.326 77.1499C276.143 77.9816 275.95 78.8076 275.745 79.6279C275.551 80.4482 275.38 81.1318 275.232 81.6787L274.155 85.7803H279.47ZM303.225 96H296.475V76.5347H290.374V71.0146H309.309V76.5347H303.225V96ZM312.881 96V71.0146H319.666V96H312.881ZM348.462 83.4731C348.462 85.3986 348.228 87.1532 347.761 88.7368C347.306 90.3091 346.588 91.6649 345.608 92.8042C344.628 93.9435 343.369 94.8208 341.831 95.436C340.293 96.0399 338.453 96.3418 336.311 96.3418C334.215 96.3418 332.397 96.0399 330.859 95.436C329.333 94.8208 328.074 93.9492 327.083 92.8213C326.091 91.682 325.356 90.3205 324.878 88.7368C324.399 87.1532 324.16 85.3872 324.16 83.439C324.16 80.8413 324.587 78.5854 325.442 76.6714C326.308 74.7459 327.641 73.2591 329.441 72.2109C331.241 71.1514 333.542 70.6216 336.345 70.6216C339.194 70.6216 341.506 71.1514 343.284 72.2109C345.072 73.2705 346.383 74.763 347.214 76.6885C348.046 78.6139 348.462 80.8755 348.462 83.4731ZM331.27 83.4731C331.27 84.9771 331.44 86.2702 331.782 87.3525C332.124 88.4349 332.665 89.2666 333.406 89.8477C334.146 90.4287 335.115 90.7192 336.311 90.7192C337.553 90.7192 338.538 90.4287 339.268 89.8477C340.008 89.2666 340.538 88.4349 340.857 87.3525C341.187 86.2702 341.353 84.9771 341.353 83.4731C341.353 81.2173 340.977 79.4342 340.225 78.124C339.473 76.8138 338.18 76.1587 336.345 76.1587C335.126 76.1587 334.141 76.4549 333.389 77.0474C332.648 77.6398 332.107 78.4829 331.765 79.5767C331.435 80.6704 331.27 81.9692 331.27 83.4731ZM376.763 96H367.91L358.784 78.3975H358.63C358.687 78.9329 358.739 79.5767 358.784 80.3286C358.83 81.0806 358.87 81.8496 358.904 82.6357C358.938 83.4105 358.955 84.1112 358.955 84.7378V96H352.974V71.0146H361.792L370.884 88.3779H370.986C370.952 87.8311 370.918 87.1987 370.884 86.481C370.85 85.7518 370.815 85.0169 370.781 84.2764C370.758 83.5358 370.747 82.8807 370.747 82.311V71.0146H376.763V96ZM380.933 93.1631C380.933 91.9554 381.286 91.1066 381.992 90.6167C382.71 90.1268 383.57 89.8818 384.573 89.8818C385.518 89.8818 386.339 90.1268 387.034 90.6167C387.729 91.1066 388.076 91.9554 388.076 93.1631C388.076 94.3138 387.729 95.1455 387.034 95.6582C386.339 96.1709 385.518 96.4272 384.573 96.4272C383.57 96.4272 382.71 96.1709 381.992 95.6582C381.286 95.1455 380.933 94.3138 380.933 93.1631Z" fill="#FFB81C"/>
</svg>
