<svg width="65" height="65" viewBox="0 0 65 65" fill="none" xmlns="http://www.w3.org/2000/svg">
<path d="M32.0995 61.7691C15.662 61.7691 2.38687 47.9568 3.27538 31.3295C4.04677 16.8064 15.7186 5.00937 30.2377 4.09663C46.4449 3.07484 60.0432 15.514 60.9196 31.2891H41.1906C40.3708 26.6608 36.0938 23.2077 31.1262 23.7166C26.6877 24.173 23.1619 27.8522 22.8792 32.3069C22.5399 37.6703 26.8048 42.1411 32.0955 42.1411C36.639 42.1411 40.4192 38.8455 41.1866 34.5201H62.5755C63.4559 34.5928 64.1869 33.9304 64.1909 33.05C64.2758 14.8638 49.1549 0.122558 30.8354 0.829329C14.0102 1.47956 0.415992 15.2798 0.0080839 32.109C-0.428095 50.17 14.1354 65.0001 32.0955 65.0001C46.7519 65.0001 59.5343 55.1012 63.1813 40.9254C63.1813 40.9093 63.1813 40.8972 63.1894 40.881C63.2015 40.8366 63.2055 40.7881 63.2095 40.7397C63.2176 40.675 63.2257 40.6145 63.2297 40.5498C63.2297 40.5377 63.2297 40.5297 63.2297 40.5175C63.2297 40.4852 63.2217 40.457 63.2217 40.4287C63.2217 40.36 63.2136 40.2954 63.2015 40.2268C63.1934 40.1823 63.1813 40.1419 63.1692 40.1016C63.153 40.045 63.1368 39.9844 63.1167 39.9279C63.1005 39.8835 63.0763 39.8431 63.0561 39.7987C63.0318 39.7461 63.0076 39.6977 62.9753 39.6492C62.9511 39.6088 62.9228 39.5725 62.8945 39.5361C62.8582 39.4917 62.8259 39.4473 62.7855 39.4029C62.7532 39.3705 62.7168 39.3382 62.6845 39.3059C62.6441 39.2696 62.5997 39.2332 62.5553 39.1969C62.5149 39.1686 62.4705 39.1444 62.426 39.1161C62.3816 39.0919 62.3372 39.0636 62.2887 39.0394C62.2362 39.0151 62.1797 38.999 62.1231 38.9788C62.0908 38.9667 62.0585 38.9505 62.0222 38.9424C62.0101 38.9424 61.9979 38.9424 61.9858 38.9384C61.9333 38.9263 61.8768 38.9182 61.8202 38.9142C61.7637 38.9061 61.7072 38.898 61.6547 38.898C61.6425 38.898 61.6304 38.898 61.6183 38.898H53.658C53.658 38.898 53.6298 38.898 53.6136 38.9021C53.553 38.9021 53.4925 38.9101 53.4319 38.9223C53.3834 38.9303 53.339 38.9344 53.2905 38.9465C53.238 38.9586 53.1896 38.9748 53.1411 38.9949C53.0926 39.0111 53.0401 39.0273 52.9917 39.0475C52.9472 39.0676 52.9068 39.0919 52.8624 39.1161C52.814 39.1444 52.7655 39.1686 52.7211 39.2009C52.6807 39.2292 52.6443 39.2615 52.608 39.2938C52.5676 39.3302 52.5232 39.3625 52.4868 39.4029C52.4545 39.4352 52.4262 39.4756 52.398 39.5119C52.3616 39.5563 52.3253 39.6008 52.293 39.6533C52.2687 39.6896 52.2526 39.726 52.2324 39.7623C52.2001 39.8188 52.1718 39.8794 52.1476 39.94C52.1435 39.9521 52.1355 39.9642 52.1314 39.9764C49.1388 48.4495 41.0856 54.14 32.0914 54.14C20.3752 54.14 10.8439 44.6087 10.8439 32.8925C10.8439 21.1762 20.3752 11.6449 32.0914 11.6449C40.2981 11.6449 47.7171 16.3864 51.2267 23.652H46.1865C43.0848 18.9307 37.7698 16.031 32.0914 16.031C22.4915 16.031 14.7412 24.0962 15.2582 33.8052C15.6944 41.9997 22.1038 48.7847 30.266 49.649C37.2569 50.3921 43.8158 46.826 47.0225 40.7195C47.3536 40.0894 47.281 39.2938 46.7761 38.7971C45.9522 37.9853 44.672 38.2438 44.1833 39.1807C41.5339 44.2654 36.013 47.1814 30.1852 46.3858C23.7677 45.5053 18.8163 40.0733 18.4851 33.6033C18.0812 25.7682 24.3412 19.2619 32.0914 19.2619C36.9379 19.2619 41.4612 21.8709 43.8925 26.0752C43.9006 26.0913 43.9127 26.1035 43.9248 26.1196C43.9571 26.1681 43.9894 26.2165 44.0258 26.261C44.0581 26.3013 44.0863 26.3377 44.1187 26.374C44.155 26.4144 44.1954 26.4467 44.2358 26.4831C44.2762 26.5154 44.3125 26.5517 44.3529 26.58C44.3973 26.6123 44.4418 26.6366 44.4902 26.6648C44.5346 26.6891 44.575 26.7133 44.6195 26.7335C44.6679 26.7577 44.7204 26.7739 44.777 26.79C44.8214 26.8062 44.8699 26.8223 44.9183 26.8345C44.9708 26.8466 45.0233 26.8547 45.0758 26.8587C45.1283 26.8668 45.1808 26.8748 45.2374 26.8748C45.2576 26.8748 45.2737 26.8789 45.2939 26.8789H53.654C53.6863 26.8789 53.7186 26.8708 53.755 26.8708C53.8115 26.8708 53.8721 26.8627 53.9286 26.8546C53.9852 26.8466 54.0377 26.8304 54.0942 26.8143C54.1265 26.8062 54.1629 26.8021 54.1952 26.79C54.2113 26.786 54.2235 26.7779 54.2356 26.7698C54.2921 26.7496 54.3446 26.7214 54.3971 26.6931C54.4416 26.6689 54.486 26.6487 54.5264 26.6244C54.5708 26.5962 54.6112 26.5639 54.6516 26.5316C54.692 26.4992 54.7364 26.4669 54.7727 26.4306C54.8091 26.3942 54.8414 26.3579 54.8737 26.3215C54.91 26.2812 54.9423 26.2408 54.9747 26.2004C55.0029 26.16 55.0272 26.1115 55.0554 26.0671C55.0797 26.0227 55.1079 25.9783 55.1281 25.9338C55.1483 25.8854 55.1645 25.8369 55.1806 25.7884C55.1968 25.7359 55.217 25.6875 55.2291 25.635C55.2412 25.5905 55.2452 25.5421 55.2533 25.4936C55.2614 25.433 55.2695 25.3765 55.2695 25.3159C55.2695 25.2998 55.2735 25.2876 55.2735 25.2715C55.2735 25.2392 55.2654 25.2069 55.2654 25.1705C55.2654 25.114 55.2574 25.0534 55.2493 24.9969C55.2412 24.9403 55.2251 24.8838 55.2089 24.8313C55.2008 24.799 55.1968 24.7666 55.1847 24.7303C51.7356 14.9688 42.4588 8.41399 32.0995 8.41399C18.6022 8.41399 7.62102 19.3952 7.62102 32.8925C7.62102 46.3898 18.6022 57.371 32.0995 57.371C42.071 57.371 51.0369 51.2928 54.7727 42.129H59.4536C55.532 53.7846 44.571 61.761 32.0995 61.761V61.7691ZM33.9048 31.2891C33.3555 30.6793 32.5074 30.3441 31.5866 30.5339C30.6658 30.7237 29.9186 31.4668 29.7288 32.3877C29.4017 33.9547 30.589 35.3319 32.0995 35.3319C32.8184 35.3319 33.4606 35.0168 33.9048 34.5241H37.8748C37.1398 37.1493 34.6681 39.0555 31.7845 38.9061C28.7434 38.7486 26.2475 36.2446 26.1021 33.2035C25.9365 29.7585 28.6909 26.9072 32.0995 26.9072C34.8499 26.9072 37.1681 28.769 37.8789 31.2972H33.9088L33.9048 31.2891Z" fill="url(#paint0_radial_462_504)"/>
<defs>
<radialGradient id="paint0_radial_462_504" cx="0" cy="0" r="1" gradientUnits="userSpaceOnUse" gradientTransform="translate(32.0995 32.9046) scale(32.0995)">
<stop stop-color="#00B3FF"/>
<stop offset="0.33" stop-color="#009AAE"/>
<stop offset="0.56" stop-color="#2860E6"/>
<stop offset="1" stop-color="#0033AE"/>
</radialGradient>
</defs>
</svg>
