<svg width="318" height="65" viewBox="0 0 318 65" fill="none" xmlns="http://www.w3.org/2000/svg">
<path d="M97.79 28.24C97.79 29.4338 97.5085 30.5601 96.9454 31.6187C96.3822 32.6774 95.4813 33.5446 94.2424 34.2203C93.0036 34.8735 91.4156 35.2001 89.4785 35.2001H85.2213V44.728H81.3696V21.2462H89.4785C91.2804 21.2462 92.8008 21.5615 94.0397 22.1922C95.3011 22.8004 96.2358 23.6338 96.844 24.6924C97.4747 25.7511 97.79 26.9336 97.79 28.24ZM89.4785 32.0579C90.9426 32.0579 92.035 31.7313 92.7558 31.0781C93.4766 30.4024 93.837 29.4564 93.837 28.24C93.837 25.6722 92.3841 24.3883 89.4785 24.3883H85.2213V32.0579H89.4785Z" fill="#0033A0"/>
<path d="M113.661 44.728L108.255 35.3353H105.315V44.728H101.464V21.2462H109.572C111.374 21.2462 112.895 21.5615 114.134 22.1922C115.395 22.8229 116.33 23.6675 116.938 24.7262C117.569 25.7849 117.884 26.9674 117.884 28.2738C117.884 29.8055 117.433 31.202 116.532 32.4634C115.654 33.7022 114.291 34.5469 112.444 34.9974L118.256 44.728H113.661ZM105.315 32.2607H109.572C111.014 32.2607 112.095 31.9003 112.816 31.1795C113.559 30.4587 113.931 29.4901 113.931 28.2738C113.931 27.0575 113.571 26.1115 112.85 25.4357C112.129 24.7375 111.036 24.3883 109.572 24.3883H105.315V32.2607Z" fill="#0033A0"/>
<path d="M133.522 44.9645C131.337 44.9645 129.321 44.4577 127.474 43.4441C125.649 42.408 124.197 40.9777 123.115 39.1532C122.057 37.3062 121.527 35.2339 121.527 32.9364C121.527 30.6389 122.057 28.5779 123.115 26.7534C124.197 24.9289 125.649 23.5099 127.474 22.4963C129.321 21.4601 131.337 20.9421 133.522 20.9421C135.729 20.9421 137.745 21.4601 139.57 22.4963C141.417 23.5099 142.869 24.9289 143.928 26.7534C144.987 28.5779 145.516 30.6389 145.516 32.9364C145.516 35.2339 144.987 37.3062 143.928 39.1532C142.869 40.9777 141.417 42.408 139.57 43.4441C137.745 44.4577 135.729 44.9645 133.522 44.9645ZM133.522 41.6196C135.076 41.6196 136.461 41.2705 137.677 40.5722C138.894 39.8514 139.84 38.8378 140.516 37.5314C141.214 36.2025 141.563 34.6708 141.563 32.9364C141.563 31.202 141.214 29.6816 140.516 28.3752C139.84 27.0688 138.894 26.0664 137.677 25.3682C136.461 24.6699 135.076 24.3208 133.522 24.3208C131.968 24.3208 130.582 24.6699 129.366 25.3682C128.15 26.0664 127.192 27.0688 126.494 28.3752C125.818 29.6816 125.48 31.202 125.48 32.9364C125.48 34.6708 125.818 36.2025 126.494 37.5314C127.192 38.8378 128.15 39.8514 129.366 40.5722C130.582 41.2705 131.968 41.6196 133.522 41.6196Z" fill="#0033A0"/>
<path d="M165.727 28.24C165.727 29.4338 165.445 30.5601 164.882 31.6187C164.319 32.6774 163.418 33.5446 162.179 34.2203C160.94 34.8735 159.352 35.2001 157.415 35.2001H153.158V44.728H149.306V21.2462H157.415C159.217 21.2462 160.737 21.5615 161.976 22.1922C163.238 22.8004 164.172 23.6338 164.781 24.6924C165.411 25.7511 165.727 26.9336 165.727 28.24ZM157.415 32.0579C158.879 32.0579 159.972 31.7313 160.692 31.0781C161.413 30.4024 161.774 29.4564 161.774 28.24C161.774 25.6722 160.321 24.3883 157.415 24.3883H153.158V32.0579H157.415Z" fill="#0033A0"/>
<path d="M180.111 44.9645C177.926 44.9645 175.91 44.4577 174.063 43.4441C172.238 42.408 170.785 40.9777 169.704 39.1532C168.646 37.3062 168.116 35.2339 168.116 32.9364C168.116 30.6389 168.646 28.5779 169.704 26.7534C170.785 24.9289 172.238 23.5099 174.063 22.4963C175.91 21.4601 177.926 20.9421 180.111 20.9421C182.318 20.9421 184.334 21.4601 186.158 22.4963C188.005 23.5099 189.458 24.9289 190.517 26.7534C191.576 28.5779 192.105 30.6389 192.105 32.9364C192.105 35.2339 191.576 37.3062 190.517 39.1532C189.458 40.9777 188.005 42.408 186.158 43.4441C184.334 44.4577 182.318 44.9645 180.111 44.9645ZM180.111 41.6196C181.665 41.6196 183.05 41.2705 184.266 40.5722C185.483 39.8514 186.429 38.8378 187.104 37.5314C187.803 36.2025 188.152 34.6708 188.152 32.9364C188.152 31.202 187.803 29.6816 187.104 28.3752C186.429 27.0688 185.483 26.0664 184.266 25.3682C183.05 24.6699 181.665 24.3208 180.111 24.3208C178.556 24.3208 177.171 24.6699 175.955 25.3682C174.738 26.0664 173.781 27.0688 173.083 28.3752C172.407 29.6816 172.069 31.202 172.069 32.9364C172.069 34.6708 172.407 36.2025 173.083 37.5314C173.781 38.8378 174.738 39.8514 175.955 40.5722C177.171 41.2705 178.556 41.6196 180.111 41.6196Z" fill="#0033A0"/>
<path d="M203.632 44.9645C202.056 44.9645 200.637 44.6942 199.375 44.1536C198.114 43.5905 197.123 42.8022 196.402 41.7886C195.681 40.775 195.321 39.5924 195.321 38.2409H199.443C199.533 39.2545 199.927 40.088 200.625 40.7412C201.346 41.3944 202.348 41.721 203.632 41.721C204.961 41.721 205.997 41.4056 206.741 40.7749C207.484 40.1217 207.856 39.2883 207.856 38.2747C207.856 37.4864 207.619 36.8444 207.146 36.3489C206.696 35.8533 206.121 35.4704 205.423 35.2001C204.747 34.9298 203.801 34.637 202.585 34.3217C201.053 33.9162 199.803 33.5108 198.835 33.1053C197.889 32.6774 197.078 32.0242 196.402 31.1457C195.726 30.2672 195.388 29.096 195.388 27.6319C195.388 26.2804 195.726 25.0979 196.402 24.0843C197.078 23.0706 198.024 22.2936 199.24 21.753C200.456 21.2124 201.864 20.9421 203.463 20.9421C205.738 20.9421 207.597 21.5165 209.038 22.6652C210.502 23.7914 211.313 25.3456 211.471 27.3278H207.214C207.146 26.4719 206.741 25.7398 205.997 25.1316C205.254 24.5235 204.274 24.2194 203.058 24.2194C201.954 24.2194 201.053 24.501 200.355 25.0641C199.657 25.6272 199.308 26.4381 199.308 27.4967C199.308 28.2175 199.522 28.8144 199.95 29.2874C200.4 29.7379 200.963 30.0983 201.639 30.3686C202.315 30.6389 203.238 30.9317 204.409 31.2471C205.964 31.675 207.225 32.103 208.194 32.531C209.185 32.9589 210.018 33.6234 210.694 34.5244C211.392 35.4028 211.741 36.5854 211.741 38.072C211.741 39.2658 211.415 40.392 210.761 41.4507C210.131 42.5093 209.196 43.3653 207.957 44.0185C206.741 44.6492 205.299 44.9645 203.632 44.9645Z" fill="#0033A0"/>
<path d="M230.443 39.9303H220.611L218.921 44.728H214.901L223.314 21.2124H227.774L236.186 44.728H232.132L230.443 39.9303ZM229.361 36.7881L225.544 25.875L221.692 36.7881H229.361Z" fill="#0033A0"/>
<path d="M243.696 41.6196H251.636V44.728H239.844V21.2462H243.696V41.6196Z" fill="#0033A0"/>
<path d="M271.852 28.0035C271.244 26.8322 270.399 25.9538 269.318 25.3682C268.237 24.76 266.987 24.4559 265.568 24.4559C264.013 24.4559 262.628 24.805 261.412 25.5033C260.195 26.2016 259.238 27.1926 258.54 28.4765C257.864 29.7604 257.526 31.2471 257.526 32.9364C257.526 34.6257 257.864 36.1236 258.54 37.4301C259.238 38.714 260.195 39.705 261.412 40.4033C262.628 41.1016 264.013 41.4507 265.568 41.4507C267.662 41.4507 269.363 40.865 270.669 39.6938C271.976 38.5225 272.775 36.9345 273.068 34.9298H264.25V31.8552H277.19V34.8623C276.942 36.6867 276.289 38.3648 275.231 39.8965C274.194 41.4282 272.832 42.6558 271.142 43.5793C269.476 44.4802 267.617 44.9307 265.568 44.9307C263.36 44.9307 261.344 44.4239 259.52 43.4103C257.695 42.3742 256.242 40.9439 255.161 39.1194C254.103 37.2949 253.573 35.2339 253.573 32.9364C253.573 30.6389 254.103 28.5779 255.161 26.7534C256.242 24.9289 257.695 23.5099 259.52 22.4963C261.367 21.4601 263.383 20.9421 265.568 20.9421C268.068 20.9421 270.286 21.5615 272.224 22.8004C274.183 24.0167 275.602 25.7511 276.481 28.0035H271.852Z" fill="#0033A0"/>
<path d="M284.841 24.3545V31.2471H292.95V34.3892H284.841V41.5858H293.963V44.728H280.989V21.2124H293.963V24.3545H284.841Z" fill="#0033A0"/>
<path d="M318 44.728H314.148L302.559 27.1926V44.728H298.707V21.2124H302.559L314.148 38.714V21.2124H318V44.728Z" fill="#0033A0"/>
<g clip-path="url(#clip0_462_499)">
<path d="M32.0995 61.7691C15.662 61.7691 2.38687 47.9568 3.27538 31.3295C4.04677 16.8064 15.7186 5.00937 30.2377 4.09663C46.4449 3.07484 60.0432 15.514 60.9196 31.2891H41.1906C40.3708 26.6608 36.0938 23.2077 31.1262 23.7166C26.6877 24.173 23.1619 27.8522 22.8792 32.3069C22.5399 37.6703 26.8048 42.1411 32.0955 42.1411C36.639 42.1411 40.4192 38.8455 41.1866 34.5201H62.5755C63.4559 34.5928 64.1869 33.9304 64.1909 33.05C64.2758 14.8638 49.1549 0.122558 30.8354 0.829329C14.0102 1.47956 0.415992 15.2798 0.0080839 32.109C-0.428095 50.17 14.1354 65.0001 32.0955 65.0001C46.7519 65.0001 59.5343 55.1012 63.1813 40.9254C63.1813 40.9093 63.1813 40.8972 63.1894 40.881C63.2015 40.8366 63.2055 40.7881 63.2095 40.7397C63.2176 40.675 63.2257 40.6145 63.2297 40.5498C63.2297 40.5377 63.2297 40.5297 63.2297 40.5175C63.2297 40.4852 63.2217 40.457 63.2217 40.4287C63.2217 40.36 63.2136 40.2954 63.2015 40.2268C63.1934 40.1823 63.1813 40.1419 63.1692 40.1016C63.153 40.045 63.1368 39.9844 63.1167 39.9279C63.1005 39.8835 63.0763 39.8431 63.0561 39.7987C63.0318 39.7461 63.0076 39.6977 62.9753 39.6492C62.9511 39.6088 62.9228 39.5725 62.8945 39.5361C62.8582 39.4917 62.8259 39.4473 62.7855 39.4029C62.7532 39.3705 62.7168 39.3382 62.6845 39.3059C62.6441 39.2696 62.5997 39.2332 62.5553 39.1969C62.5149 39.1686 62.4705 39.1444 62.426 39.1161C62.3816 39.0919 62.3372 39.0636 62.2887 39.0394C62.2362 39.0151 62.1797 38.999 62.1231 38.9788C62.0908 38.9667 62.0585 38.9505 62.0222 38.9424C62.0101 38.9424 61.9979 38.9424 61.9858 38.9384C61.9333 38.9263 61.8768 38.9182 61.8202 38.9142C61.7637 38.9061 61.7072 38.898 61.6547 38.898C61.6425 38.898 61.6304 38.898 61.6183 38.898H53.658C53.658 38.898 53.6298 38.898 53.6136 38.9021C53.553 38.9021 53.4925 38.9101 53.4319 38.9223C53.3834 38.9303 53.339 38.9344 53.2905 38.9465C53.238 38.9586 53.1896 38.9748 53.1411 38.9949C53.0926 39.0111 53.0401 39.0273 52.9917 39.0475C52.9472 39.0676 52.9068 39.0919 52.8624 39.1161C52.814 39.1444 52.7655 39.1686 52.7211 39.2009C52.6807 39.2292 52.6443 39.2615 52.608 39.2938C52.5676 39.3302 52.5232 39.3625 52.4868 39.4029C52.4545 39.4352 52.4262 39.4756 52.398 39.5119C52.3616 39.5563 52.3253 39.6008 52.293 39.6533C52.2687 39.6896 52.2526 39.726 52.2324 39.7623C52.2001 39.8188 52.1718 39.8794 52.1476 39.94C52.1435 39.9521 52.1355 39.9642 52.1314 39.9764C49.1388 48.4495 41.0856 54.14 32.0914 54.14C20.3752 54.14 10.8439 44.6087 10.8439 32.8925C10.8439 21.1762 20.3752 11.6449 32.0914 11.6449C40.2981 11.6449 47.7171 16.3864 51.2267 23.652H46.1865C43.0848 18.9307 37.7698 16.031 32.0914 16.031C22.4915 16.031 14.7412 24.0962 15.2582 33.8052C15.6944 41.9997 22.1038 48.7847 30.266 49.649C37.2569 50.3921 43.8158 46.826 47.0225 40.7195C47.3536 40.0894 47.281 39.2938 46.7761 38.7971C45.9522 37.9853 44.672 38.2438 44.1833 39.1807C41.5339 44.2654 36.013 47.1814 30.1852 46.3858C23.7677 45.5053 18.8163 40.0733 18.4851 33.6033C18.0812 25.7682 24.3412 19.2619 32.0914 19.2619C36.9379 19.2619 41.4612 21.8709 43.8925 26.0752C43.9006 26.0913 43.9127 26.1035 43.9248 26.1196C43.9571 26.1681 43.9894 26.2165 44.0258 26.261C44.0581 26.3013 44.0863 26.3377 44.1187 26.374C44.155 26.4144 44.1954 26.4467 44.2358 26.4831C44.2762 26.5154 44.3125 26.5517 44.3529 26.58C44.3973 26.6123 44.4418 26.6366 44.4902 26.6648C44.5346 26.6891 44.575 26.7133 44.6195 26.7335C44.6679 26.7577 44.7204 26.7739 44.777 26.79C44.8214 26.8062 44.8699 26.8223 44.9183 26.8345C44.9708 26.8466 45.0233 26.8547 45.0758 26.8587C45.1283 26.8668 45.1808 26.8748 45.2374 26.8748C45.2576 26.8748 45.2737 26.8789 45.2939 26.8789H53.654C53.6863 26.8789 53.7186 26.8708 53.755 26.8708C53.8115 26.8708 53.8721 26.8627 53.9286 26.8546C53.9852 26.8466 54.0377 26.8304 54.0942 26.8143C54.1265 26.8062 54.1629 26.8021 54.1952 26.79C54.2113 26.786 54.2235 26.7779 54.2356 26.7698C54.2921 26.7496 54.3446 26.7214 54.3971 26.6931C54.4416 26.6689 54.486 26.6487 54.5264 26.6244C54.5708 26.5962 54.6112 26.5639 54.6516 26.5316C54.692 26.4992 54.7364 26.4669 54.7727 26.4306C54.8091 26.3942 54.8414 26.3579 54.8737 26.3215C54.91 26.2812 54.9423 26.2408 54.9747 26.2004C55.0029 26.16 55.0272 26.1115 55.0554 26.0671C55.0797 26.0227 55.1079 25.9783 55.1281 25.9338C55.1483 25.8854 55.1645 25.8369 55.1806 25.7884C55.1968 25.7359 55.217 25.6875 55.2291 25.635C55.2412 25.5905 55.2452 25.5421 55.2533 25.4936C55.2614 25.433 55.2695 25.3765 55.2695 25.3159C55.2695 25.2998 55.2735 25.2876 55.2735 25.2715C55.2735 25.2392 55.2654 25.2069 55.2654 25.1705C55.2654 25.114 55.2574 25.0534 55.2493 24.9969C55.2412 24.9403 55.2251 24.8838 55.2089 24.8313C55.2008 24.799 55.1968 24.7666 55.1847 24.7303C51.7356 14.9688 42.4588 8.41399 32.0995 8.41399C18.6022 8.41399 7.62102 19.3952 7.62102 32.8925C7.62102 46.3898 18.6022 57.371 32.0995 57.371C42.071 57.371 51.0369 51.2928 54.7727 42.129H59.4536C55.532 53.7846 44.571 61.761 32.0995 61.761V61.7691ZM33.9048 31.2891C33.3555 30.6793 32.5074 30.3441 31.5866 30.5339C30.6658 30.7237 29.9186 31.4668 29.7288 32.3877C29.4017 33.9547 30.589 35.3319 32.0995 35.3319C32.8184 35.3319 33.4606 35.0168 33.9048 34.5241H37.8748C37.1398 37.1493 34.6681 39.0555 31.7845 38.9061C28.7434 38.7486 26.2475 36.2446 26.1021 33.2035C25.9365 29.7585 28.6909 26.9072 32.0995 26.9072C34.8499 26.9072 37.1681 28.769 37.8789 31.2972H33.9088L33.9048 31.2891Z" fill="url(#paint0_radial_462_499)"/>
</g>
<defs>
<radialGradient id="paint0_radial_462_499" cx="0" cy="0" r="1" gradientUnits="userSpaceOnUse" gradientTransform="translate(32.0995 32.9046) scale(32.0995)">
<stop stop-color="#00B3FF"/>
<stop offset="0.33" stop-color="#009AAE"/>
<stop offset="0.56" stop-color="#2860E6"/>
<stop offset="1" stop-color="#0033AE"/>
</radialGradient>
<clipPath id="clip0_462_499">
<rect width="64.195" height="64.195" fill="white" transform="translate(0 0.805054)"/>
</clipPath>
</defs>
</svg>
